<svg xmlns="http://www.w3.org/2000/svg" viewBox="0 0 500 500"><g id="freepik--background-complete--inject-37"><rect y="382.4" width="500" height="0.25" style="fill:#ebebeb"></rect><rect x="416.78" y="398.49" width="33.12" height="0.25" style="fill:#ebebeb"></rect><rect x="322.53" y="401.21" width="8.69" height="0.25" style="fill:#ebebeb"></rect><rect x="396.59" y="389.21" width="19.19" height="0.25" style="fill:#ebebeb"></rect><rect x="52.46" y="390.89" width="43.19" height="0.25" style="fill:#ebebeb"></rect><rect x="104.56" y="390.89" width="6.33" height="0.25" style="fill:#ebebeb"></rect><rect x="131.47" y="395.11" width="93.68" height="0.25" style="fill:#ebebeb"></rect><path d="M237,337.8H43.91a5.71,5.71,0,0,1-5.7-5.71V60.66A5.71,5.71,0,0,1,43.91,55H237a5.71,5.71,0,0,1,5.71,5.71V332.09A5.71,5.71,0,0,1,237,337.8ZM43.91,55.2a5.46,5.46,0,0,0-5.45,5.46V332.09a5.46,5.46,0,0,0,5.45,5.46H237a5.47,5.47,0,0,0,5.46-5.46V60.66A5.47,5.47,0,0,0,237,55.2Z" style="fill:#ebebeb"></path><path d="M453.31,337.8H260.21a5.72,5.72,0,0,1-5.71-5.71V60.66A5.72,5.72,0,0,1,260.21,55h193.1A5.71,5.71,0,0,1,459,60.66V332.09A5.71,5.71,0,0,1,453.31,337.8ZM260.21,55.2a5.47,5.47,0,0,0-5.46,5.46V332.09a5.47,5.47,0,0,0,5.46,5.46h193.1a5.47,5.47,0,0,0,5.46-5.46V60.66a5.47,5.47,0,0,0-5.46-5.46Z" style="fill:#ebebeb"></path><path d="M139.09,344.7,144,355.94a11.88,11.88,0,0,0,10.9,7.15h20.47a10.25,10.25,0,0,0,7.24-3h38.23a9.32,9.32,0,0,0,7.56-3.87l5.05-7Z" style="fill:#e0e0e0"></path><path d="M170.24,300.14c0,5.39,21.48,43.67,23.63,45.19s30.19-.18,30.19-.18L222,353.09h-77L113,291l21.15-30.53,38.55,1.07S170.24,294.76,170.24,300.14Z" style="fill:#e6e6e6"></path><path d="M170.24,300.14c0,5.39,21.48,43.67,23.63,45.19s30.19-.18,30.19-.18L222,353.09h-77L113,291l21.15-30.53,38.55,1.07S170.24,294.76,170.24,300.14Z" style="fill:#f0f0f0;isolation:isolate"></path><ellipse cx="107.69" cy="344.78" rx="31.41" ry="37.89" style="fill:#e0e0e0"></ellipse><ellipse cx="102.43" cy="344.78" rx="19.81" ry="23.9" style="fill:#ebebeb"></ellipse><path d="M97.88,334.51c-4.56,0-8.25,4.45-8.25,9.95s3.69,10,8.25,10,8.25-4.46,8.25-10S102.44,334.51,97.88,334.51Z" style="fill:#e6e6e6"></path><path d="M97.88,334.51c-4.56,0-8.25,4.45-8.25,9.95s3.69,10,8.25,10,8.25-4.46,8.25-10S102.44,334.51,97.88,334.51Z" style="fill:#e0e0e0;isolation:isolate"></path><path d="M282.66,287.54s-28.35,21.74-39.16,66.55H198.1l43-70,22.68-9.43Z" style="fill:#e6e6e6"></path><path d="M285.64,285.33s-26.52,20.28-39.18,58.41a15,15,0,0,1-14.22,10.35H198.1l43-70,22.68-9.43Z" style="fill:#e0e0e0;isolation:isolate"></path><path d="M282.86,287.09H265.35a16.74,16.74,0,0,0-9.36,2.74c-10.39,6.92-35,26.22-37.56,56.8a8.1,8.1,0,0,1-8,7.46H134.32a72.28,72.28,0,0,1-36.4-9.83L76.16,331.58A13,13,0,0,1,70,317.76c2.59-12.48,9.89-33.92,30.78-42.3.33-.15-.17-.28.83-.4v-13h54.56s-10.94,26.09-10.94,36.85c0,10.19,10.76,49.15,24.68,53.15h19a14.38,14.38,0,0,0,12.28-7.5c9.26-16.53,29.83-59.39,23.42-99.9-.75-4.73,2.89-9.6,7.69-9.6h24.5s22.05,25.52,29.14,47.09C286.65,284.28,285.08,287.09,282.86,287.09Z" style="fill:#e6e6e6"></path><path d="M243.56,227h-7a8.07,8.07,0,0,1-5.05-1.79l-14.39-11.65a3.2,3.2,0,0,0-2-.71H187.49a2,2,0,0,1,0-4h27.64a7.21,7.21,0,0,1,4.52,1.6l14.4,11.65a4,4,0,0,0,2.53.9h7a4.06,4.06,0,0,0,4-3.47l.63-4.49a7.24,7.24,0,0,1,7.13-6.19h5.27a2,2,0,0,1,0,4h-5.27a3.22,3.22,0,0,0-3.17,2.75l-.63,4.49A8.08,8.08,0,0,1,243.56,227Z" style="fill:#e0e0e0"></path><path d="M231.24,218.49s.09,4.72-4.34,4.42L225.46,228a5.36,5.36,0,0,0,.61,4.31l3.13,5h29l2.28-4.3a3.65,3.65,0,0,0-.61-4.27L251.27,220a4.85,4.85,0,0,0-3.48-1.47Z" style="fill:#e6e6e6"></path><path d="M231.24,218.49s.09,4.72-4.34,4.42L225.46,228a5.36,5.36,0,0,0,.61,4.31l3.13,5h29l2.28-4.3a3.65,3.65,0,0,0-.61-4.27L251.27,220a4.85,4.85,0,0,0-3.48-1.47Z" style="fill:#e0e0e0;isolation:isolate"></path><ellipse cx="281.04" cy="344.78" rx="31.41" ry="37.89" style="fill:#e0e0e0"></ellipse><ellipse cx="275.79" cy="344.78" rx="19.81" ry="23.9" style="fill:#ebebeb"></ellipse><path d="M312,320.34c-3.31-5.62-12.16-17.8-28.07-21.36a31.08,31.08,0,0,0-12.43-.36l-.07-.17.07-.15-.12,0-2.74-6.24h-3.11a11.65,11.65,0,0,0-7,2.34l-5.46,4.1,2.57,8.91a25.68,25.68,0,0,0-2.08,2.53,45.1,45.1,0,0,0-9.15,19.69,2.11,2.11,0,0,0,2.09,2.43h1.64a2.11,2.11,0,0,0,2-1.34,27.37,27.37,0,0,1,6.79-10.2L266,344.26l7.33-3.08-2.57-29.56s16.86-4.73,27.9,8.9a6.88,6.88,0,0,0,5.34,2.57h6.41A1.83,1.83,0,0,0,312,320.34Z" style="fill:#e6e6e6"></path><path d="M312,320.34c-3.31-5.62-12.16-17.8-28.07-21.36a31.08,31.08,0,0,0-12.43-.36l-.07-.17.07-.15-.12,0-2.74-6.24h-3.11a11.65,11.65,0,0,0-7,2.34l-5.46,4.1,2.57,8.91a25.68,25.68,0,0,0-2.08,2.53,45.1,45.1,0,0,0-9.15,19.69,2.11,2.11,0,0,0,2.09,2.43h1.64a2.11,2.11,0,0,0,2-1.34,27.37,27.37,0,0,1,6.79-10.2L266,344.26l7.33-3.08-2.57-29.56s16.86-4.73,27.9,8.9a6.88,6.88,0,0,0,5.34,2.57h6.41A1.83,1.83,0,0,0,312,320.34Z" style="fill:#f0f0f0;isolation:isolate"></path><path d="M271.24,334.51c-4.56,0-8.25,4.45-8.25,9.95s3.69,10,8.25,10,8.25-4.46,8.25-10S275.8,334.51,271.24,334.51Z" style="fill:#e6e6e6"></path><path d="M271.24,334.51c-4.56,0-8.25,4.45-8.25,9.95s3.69,10,8.25,10,8.25-4.46,8.25-10S275.8,334.51,271.24,334.51Z" style="fill:#e0e0e0;isolation:isolate"></path><path d="M241.53,238.46s5.19,32.67,22.33,32.9c16.07.21,17.57-30.47,2.24-35.18C253.72,232.37,241.53,238.46,241.53,238.46Z" style="fill:#e6e6e6"></path><path d="M241.53,238.46s5.19,32.67,22.33,32.9c16.07.21,17.57-30.47,2.24-35.18C253.72,232.37,241.53,238.46,241.53,238.46Z" style="fill:#f0f0f0;isolation:isolate"></path><ellipse cx="263.86" cy="253.48" rx="11.82" ry="15.06" transform="translate(-28.38 33.32) rotate(-6.86)" style="fill:#f5f5f5"></ellipse><polygon points="259.42 232.05 244.53 232.05 245.71 230.13 259.42 230.13 259.42 232.05" style="fill:#e6e6e6"></polygon><path d="M177.59,260.71v3.76c0,3.41-2.79,5.62-6.21,5.62H103.76c-3.43,0-6.17-2.21-6.17-5.62v-3.76c0-3.41,2.74-5.62,6.17-5.62h67.62C174.8,255.09,177.59,257.3,177.59,260.71Z" style="fill:#e0e0e0"></path><path d="M155.59,260.71v3.76a5.37,5.37,0,0,1-5.76,5.62H103.76c-3.43,0-6.17-2.21-6.17-5.62v-3.76c0-3.41,2.74-5.62,6.17-5.62h46.07A5.37,5.37,0,0,1,155.59,260.71Z" style="fill:#f0f0f0;isolation:isolate"></path><path d="M147.08,330v24.12H134.32a72.28,72.28,0,0,1-36.4-9.83L76.16,331.58A13,13,0,0,1,70,317.76c2.59-12.48,10-33.92,30.93-42.3l1,.05h8.45a25.65,25.65,0,0,1,23.22,14.78l9,19.3A48.16,48.16,0,0,1,147.08,330Z" style="fill:#f0f0f0;isolation:isolate"></path><rect x="207.17" y="194.09" width="2" height="17.83" transform="translate(-80.51 168.21) rotate(-37.41)" style="fill:#e0e0e0"></rect><path d="M197,193.59h5.1a2.72,2.72,0,0,1,2.49,1.64l.68,1.59a2.71,2.71,0,0,1-2.49,3.77h-5.55a2.7,2.7,0,0,1-2.68-2.32l-.23-1.59A2.71,2.71,0,0,1,197,193.59Z" style="fill:#e6e6e6"></path><rect x="247.62" y="203.09" width="12.94" height="2" transform="translate(2.02 410.67) rotate(-78.11)" style="fill:#e0e0e0"></rect><path d="M261.41,193.59h-5.49a2.23,2.23,0,0,0-2.21,1.92l-.37,2.53a2.24,2.24,0,0,0,2.22,2.55H261a2.23,2.23,0,0,0,2.21-1.92l.37-2.53A2.24,2.24,0,0,0,261.41,193.59Z" style="fill:#e6e6e6"></path><path d="M118.1,255.09v13.67l2.4,1.33v7.54c-12.9,2.14-20.44,28.74-20.44,28.74H55.84A7.37,7.37,0,0,1,48.47,299V168.51a7.37,7.37,0,0,1,7.37-7.37h86.63a7.23,7.23,0,0,1,3.34.81,7.35,7.35,0,0,1,4,6.56v86.58Z" style="fill:#e6e6e6"></path><path d="M118.1,255.09v13.67l2.4,1.33v7.54c-12.9,2.14-20.44,28.74-20.44,28.74H91V168.45a6.5,6.5,0,0,1,6.5-6.5h48.33a7.35,7.35,0,0,1,4,6.56v86.58Z" style="fill:#ebebeb"></path><rect x="308.78" y="90.8" width="143.11" height="290.52" style="fill:#ebebeb"></rect><rect x="384.61" y="123.9" width="34.33" height="34.33" style="fill:#f5f5f5"></rect><rect x="342.23" y="123.9" width="34.33" height="34.33" style="fill:#f5f5f5"></rect><rect x="342.23" y="166.29" width="34.33" height="34.33" style="fill:#f5f5f5"></rect><rect x="384.61" y="166.29" width="34.33" height="34.33" style="fill:#f5f5f5"></rect><path d="M327.83,243.23a5.6,5.6,0,1,1-5.6-5.6A5.6,5.6,0,0,1,327.83,243.23Z" style="fill:#e0e0e0"></path><path d="M117.62,119.73A5.63,5.63,0,0,0,112,114.1a5.7,5.7,0,0,0-1.61.24,12.26,12.26,0,0,0,.12-1.73,11.92,11.92,0,0,0-11.92-11.92,11.29,11.29,0,0,0-2.19.21,10.42,10.42,0,0,0-19.32,5.26h-.18a9.61,9.61,0,0,0,0,19.21h35.26A5.61,5.61,0,0,0,117.62,119.73Z" style="fill:#f5f5f5"></path><path d="M240.92,87.43A3.45,3.45,0,0,0,237.47,84a3.53,3.53,0,0,0-1,.14,7.2,7.2,0,0,0,.08-1.05,7.28,7.28,0,0,0-8.65-7.18,6.38,6.38,0,0,0-11.84,3.23H216a5.89,5.89,0,1,0,0,11.77h21.6A3.45,3.45,0,0,0,240.92,87.43Z" style="fill:#f5f5f5"></path></g><g id="freepik--Shadow--inject-37"><ellipse id="freepik--path--inject-37" cx="250" cy="416.24" rx="193.89" ry="11.32" style="fill:#f5f5f5"></ellipse></g><g id="freepik--Plant--inject-37"><path d="M115,391.82s5-10.85-.7-21.55-7.34-13.22-3.71-15.42,5.28,8.56,5.28,8.56a24.11,24.11,0,0,0,.54-15.13c-2.53-7.74-4.11-20.35-.66-21.71s.65,15.73,3.64,21.56a50.17,50.17,0,0,0,2.92-12.7c.42-6.22-.23-16.15,2.49-18.7s4.46-.78,1.79,12.94A143.7,143.7,0,0,0,124,354.55s5.9-18,9.86-18.53,4,5.31.57,10.36-9.93,14.11-11,18.77c0,0,6.48-13.54,12.3-9.39s-5.07,12.33-9.93,15.29-8.23,21.49-8.23,21.49Z" style="fill:#407BFF"></path><path d="M115,391.82s5-10.85-.7-21.55-7.34-13.22-3.71-15.42,5.28,8.56,5.28,8.56a24.11,24.11,0,0,0,.54-15.13c-2.53-7.74-4.11-20.35-.66-21.71s.65,15.73,3.64,21.56a50.17,50.17,0,0,0,2.92-12.7c.42-6.22-.23-16.15,2.49-18.7s4.46-.78,1.79,12.94A143.7,143.7,0,0,0,124,354.55s5.9-18,9.86-18.53,4,5.31.57,10.36-9.93,14.11-11,18.77c0,0,6.48-13.54,12.3-9.39s-5.07,12.33-9.93,15.29-8.23,21.49-8.23,21.49Z" style="fill:#fff;opacity:0.6000000000000001;isolation:isolate"></path><path d="M119,396.27s-4.84-10.92,1-21.54,7.49-13.11,3.89-15.35-5.39,8.48-5.39,8.48a24.23,24.23,0,0,1-.35-15.15c2.62-7.7,4.35-20.29.92-21.69s-.84,15.72-3.9,21.5a50.35,50.35,0,0,1-2.77-12.75c-.34-6.22.42-16.14-2.26-18.72s-4.46-.86-2,12.9a143.85,143.85,0,0,1,2.36,24.92s-5.69-18.09-9.65-18.67-4,5.24-.69,10.35,9.77,14.26,10.78,18.93c0,0-6.31-13.64-12.19-9.57s4.92,12.4,9.75,15.43,8,21.61,8,21.61Z" style="fill:#407BFF"></path><path d="M119,396.27s-4.84-10.92,1-21.54,7.49-13.11,3.89-15.35-5.39,8.48-5.39,8.48a24.23,24.23,0,0,1-.35-15.15c2.62-7.7,4.35-20.29.92-21.69s-.84,15.72-3.9,21.5a50.35,50.35,0,0,1-2.77-12.75c-.34-6.22.42-16.14-2.26-18.72s-4.46-.86-2,12.9a143.85,143.85,0,0,1,2.36,24.92s-5.69-18.09-9.65-18.67-4,5.24-.69,10.35,9.77,14.26,10.78,18.93c0,0-6.31-13.64-12.19-9.57s4.92,12.4,9.75,15.43,8,21.61,8,21.61Z" style="fill:#fff;opacity:0.7000000000000001;isolation:isolate"></path><polygon points="96.63 388.48 136.65 388.48 133.41 417.12 99.87 417.12 96.63 388.48" style="fill:#407BFF"></polygon></g><g id="freepik--Cat--inject-37"><path d="M355.46,387.49a16.22,16.22,0,0,1-3.84-.44,2.5,2.5,0,0,1,1.27-4.84c.07,0,5.3,1.3,7.85-1.75a7.62,7.62,0,0,0,1.83-6.37c-.69-3.35-4-6.59-9.46-9.38-10.49-5.32-8.63-11.3-7.81-13,1.72-3.57,6.28-5.62,9.38-4.2a2.5,2.5,0,1,1-2.07,4.55,3.42,3.42,0,0,0-2.87,2c-.68,1.73,1.48,4.11,5.63,6.22,7,3.55,11.08,7.87,12.09,12.84a12.53,12.53,0,0,1-2.88,10.57A11.55,11.55,0,0,1,355.46,387.49Z" style="fill:#263238"></path><g style="opacity:0.2;isolation:isolate"><path d="M355.46,387.49a16.22,16.22,0,0,1-3.84-.44,2.5,2.5,0,0,1,1.27-4.84c.07,0,5.3,1.3,7.85-1.75a7.62,7.62,0,0,0,1.83-6.37c-.69-3.35-4-6.59-9.46-9.38-10.49-5.32-8.63-11.3-7.81-13,1.72-3.57,6.28-5.62,9.38-4.2a2.5,2.5,0,1,1-2.07,4.55,3.42,3.42,0,0,0-2.87,2c-.68,1.73,1.48,4.11,5.63,6.22,7,3.55,11.08,7.87,12.09,12.84a12.53,12.53,0,0,1-2.88,10.57A11.55,11.55,0,0,1,355.46,387.49Z" style="fill:#fff"></path></g><path d="M324.52,391.15l-.67-1.46c-2.28-.33-4.57-.73-6.85-1.1a182.27,182.27,0,0,0,6.52,26.25s-3.75-.14-2.48,2.28h5.88C327.6,416.3,321,402,324.52,391.15Z" style="fill:#263238"></path><path d="M336.54,391.36s2.73,8.27,8.09,13.68l-4.05,9.55s-3.25.74-2.59,2.53h4.54s6.27-10.49,6.54-11.62,1.45-12.73,1.45-12.73Z" style="fill:#263238"></path><path d="M324.52,391.15l-.67-1.46c-2.28-.33-4.57-.73-6.85-1.1a182.27,182.27,0,0,0,6.52,26.25s-3.75-.14-2.48,2.28h5.88C327.6,416.3,321,402,324.52,391.15Z" style="fill:#fff;opacity:0.2;isolation:isolate"></path><path d="M336.54,391.36s2.73,8.27,8.09,13.68l-4.05,9.55s-3.25.74-2.59,2.53h4.54s6.27-10.49,6.54-11.62,1.45-12.73,1.45-12.73Z" style="fill:#fff;opacity:0.2;isolation:isolate"></path><path d="M356,384.12c-3.34-4.69-9.05-2.56-25.51-8.19s-9.89-23.21-9.89-23.21l-5.5,4.41-5.84-3.36a9.22,9.22,0,0,0-2,8.31c1.19,5.15,5,13.19,5.41,19.14l-3.1,10.66s-10.48,2.2-11.41,4.42.66,5.79.66,5.79l2.91-.23-1.52-4c4.81-1.61,13-1.77,14.7-2.57a18.43,18.43,0,0,0,6.1-4.95c1.09.91,7.66,5.74,24.63,5.63,0,0,5.69,7.63,11.6,9.55l.94,9.22s-3.58.16-3.44,2.36h6.32l.62-13.06C357.9,394.26,359.22,388.69,356,384.12Z" style="fill:#263238"></path><path d="M356,384.12c-3.34-4.69-9.05-2.56-25.51-8.19s-9.89-23.21-9.89-23.21l-5.5,4.41-5.84-3.36a9.22,9.22,0,0,0-2,8.31c1.19,5.15,5,13.19,5.41,19.14l-3.1,10.66s-10.48,2.2-11.41,4.42.66,5.79.66,5.79l2.91-.23-1.52-4c4.81-1.61,13-1.77,14.7-2.57a18.43,18.43,0,0,0,6.1-4.95c1.09.91,7.66,5.74,24.63,5.63,0,0,5.69,7.63,11.6,9.55l.94,9.22s-3.58.16-3.44,2.36h6.32l.62-13.06C357.9,394.26,359.22,388.69,356,384.12Z" style="fill:#fff;opacity:0.4;isolation:isolate"></path><path d="M313.28,359.26c-.23.45-.6.73-.83.61s-.22-.58,0-1,.6-.73.83-.61S313.51,358.81,313.28,359.26Z" style="fill:#263238"></path><path d="M309.87,354s-.56-.5-.76-.5-.45,1-.45,1Z" style="fill:#a24e3f"></path><path d="M315.08,357.13a12.56,12.56,0,0,1,1.88,1.92l2.17-4.55Z" style="opacity:0.2;isolation:isolate"></path></g><g id="freepik--character-2--inject-37"><path d="M319,193.7s.28-3.27-.58-4.39-11-7.62-11.51-6.91-2.61,6-2.49,7.55,7.86,8.39,9,7.55S319,193.7,319,193.7Z" style="fill:#b97964"></path><path d="M366.83,179.11c-7.7.79-20.95,24.33-24.71,24.13s-25.32-12.06-25.32-12.06L313,196.91S337,214,343.51,213.61s25.12-23.22,25.12-23.22Z" style="fill:#b97964"></path><path d="M376.57,367.89c6.38,8,12.11,15.3,17.11,20.6h0c5,5.37,7.58,8.7,7.58,8.7l4.94-2.84s-4.57-7.23-10.77-17.2c-5.27-8.46-11.72-18.9-17.58-28.57-7.58-12.5-14.17-23.71-15.91-27.72-1.24-2.85,2.12-13.8,5.83-24.12,3.77-10.51,7.91-20.38,7.91-20.38l-13.49-22.85s-5.49,15.21-10.37,31.26c-3.21,10.5-6.13,21.37-7.12,28.59C343.32,323.45,360.73,348,376.57,367.89Z" style="fill:#b97964"></path><path d="M376.52,367.89c6.38,8,12.51,15.3,17.07,20.6.65-3.26,1.31-7.12,1.83-11.33-5.27-8.46-11.72-18.9-17.58-28.57A110.64,110.64,0,0,1,376.52,367.89Z" style="opacity:0.2;isolation:isolate"></path><path d="M351.82,284.78l15.95,12c3.77-10.51,7.91-20.38,7.91-20.38l-13.49-22.85S356.7,268.73,351.82,284.78Z" style="opacity:0.2;isolation:isolate"></path><path d="M379.68,408.87l5.75.75s8.25-40.61,8-74.12a285.79,285.79,0,0,0,7.16-33.73c2-13.72,3-29,.34-40.4l-20,9-.41,30-.34,25Z" style="fill:#b97964"></path><path d="M380.52,300.37l20.07,1.4c2-13.72,3-29,.34-40.4l-20,9Z" style="opacity:0.2;isolation:isolate"></path><path d="M405.87,391.21c-.59-.43-5.57,7-5.57,7s1.11,7.77-1.13,12.79,2.12,4.59,5.74-.17l9-11.75C416.47,395.74,412,395.65,405.87,391.21Z" style="fill:#263238"></path><path d="M398.46,403.89a1.05,1.05,0,0,1-.92-1.18,3.66,3.66,0,0,1,1-1.73c-.75.35-1.51.57-1.9.3s-.34-.48-.24-.92a1.33,1.33,0,0,1,.67-.94c1.14-.66,3.24,0,3.35,0l.08.05h0l0,.06h0l0,.07h0v.09c-.14.65-.87,3.87-2,4.14Zm1.54-3.6c-.79.67-1.9,1.75-2,2.48a.5.5,0,0,0,.1.4c.22.28.36.25.41.24C399,403.28,399.64,401.68,400,400.29Zm-1.57-.69a2.18,2.18,0,0,0-1.08.23.92.92,0,0,0-.45.63c0,.13-.06.36,0,.43.34.23,1.67-.36,2.87-1.11A6.08,6.08,0,0,0,398.43,399.6Z" style="fill:#407BFF"></path><path d="M387.47,406c0-.73-9-.16-9-.16s-5.5,5.6-10.85,6.86-2.36,4.47,3.62,4.47h14.79C390.3,417.12,387.65,413.5,387.47,406Z" style="fill:#263238"></path><path d="M373.79,408.08a1.23,1.23,0,0,1-.78-.21.83.83,0,0,1-.22-.95.91.91,0,0,1,.48-.61,3.7,3.7,0,0,1,2-.22c-.72-.39-1.36-.86-1.39-1.33,0-.31.18-.56.59-.75a1.38,1.38,0,0,1,1.16,0c1.21.51,2,2.58,2,2.69a.15.15,0,0,1,0,.09h0a.24.24,0,0,1,0,.08h0a.21.21,0,0,1,0,.06h0a.16.16,0,0,1-.08.06A11.26,11.26,0,0,1,373.79,408.08Zm.77-1.56a2.28,2.28,0,0,0-1.06.2.47.47,0,0,0-.25.31c-.09.35,0,.44.06.47.42.35,2.06-.14,3.38-.7A10.42,10.42,0,0,0,374.56,406.52Zm.52-2.19a1.07,1.07,0,0,0-.41.1c-.12.06-.32.18-.32.3,0,.4,1.31,1.1,2.63,1.6a3.9,3.9,0,0,0-1.53-1.92A1,1,0,0,0,375.08,404.33Z" style="fill:#407BFF"></path><path d="M371.64,291.12,350,279.79c6.81-20.68,12.94-32.4,12.94-32.4,21.26,3.64,19.32,20.44,19.32,20.44S376.85,279.05,371.64,291.12Z" style="fill:#263238"></path><path d="M373,287.93c-.46,1.05-.93,2.12-1.39,3.19L350,279.79c6.8-20.68,12.93-32.4,12.93-32.4,13.12,2.25,17.4,9.51,18.76,14.74a17.25,17.25,0,0,1,.56,5.7S377.78,277.15,373,287.93Z" style="fill:#fff;opacity:0.1;isolation:isolate"></path><path d="M373,287.93c4.75-10.78,9.24-20.1,9.24-20.1a17.25,17.25,0,0,0-.56-5.7,6.83,6.83,0,0,0-2.21-.93S373.72,270.27,373,287.93Z" style="opacity:0.2;isolation:isolate"></path><path d="M378.34,295.79l.74-34.59-17.14-5s1.35-15.87,3.35-23.69c0,0,27.85-6.93,32.09,2.51,0,0,0,.15.06.2l.07.08s8,14.08,5.61,60.5Z" style="fill:#263238"></path><path d="M378.34,295.79l.74-34.59-17.14-5s1.35-15.87,3.35-23.69c0,0,27.85-6.93,32.09,2.51,0,0,0,.15.06.2l.07.08s8,14.08,5.61,60.5Z" style="fill:#fff;opacity:0.1;isolation:isolate"></path><polygon points="397.68 230.22 397.68 234.94 365.68 232.47 365.68 226.88 397.68 230.22" style="fill:#263238"></polygon><rect x="386.63" y="228.27" width="1.6" height="8.16" transform="translate(762.51 484.16) rotate(-177.07)" style="fill:#263238"></rect><rect x="372.63" y="228.34" width="7.08" height="5.37" transform="translate(730.22 494.68) rotate(-174.88)" style="fill:#fff"></rect><rect x="366.94" y="226.11" width="1.6" height="8.16" transform="matrix(-1, -0.05, 0.05, -1, 723.27, 478.81)" style="fill:#263238"></rect><rect x="383.36" y="231.55" width="8.16" height="1.6" transform="translate(135.62 607.42) rotate(-87.07)" style="fill:#fff;opacity:0.1;isolation:isolate"></rect><rect x="363.66" y="229.38" width="8.16" height="1.6" transform="translate(119.11 585.71) rotate(-87.08)" style="fill:#fff;opacity:0.1;isolation:isolate"></rect><path d="M365.29,227.45l32.24,2.79c.77-12,1.53-19.72,8.63-41.08q.93-2.81,2-5.95A96.06,96.06,0,0,0,394.8,180a103.67,103.67,0,0,0-14.48-1.53c-6.28,0-13.48.66-13.48.66s-1,.25-1.67,6.89C364.57,192.25,364,204.74,365.29,227.45Z" style="fill:#407BFF"></path><path d="M408.17,183.21c-.73,2.09-1.4,4.08-2,5.95s-1.28,3.89-1.84,5.67c-1.32,4.2-2.36,7.82-3.19,11a115.88,115.88,0,0,0-3.6,24.37l-32.24-2.79c-1.3-22.71-.72-35.2-.13-41.45.65-6.64,1.67-6.89,1.67-6.89s1.91-.19,4.63-.36c2.55-.17,5.81-.32,8.85-.3A103.35,103.35,0,0,1,394.79,180c2.77.46,5.52,1,8.23,1.74Q405.62,182.4,408.17,183.21Z" style="fill:#fff;opacity:0.6000000000000001;isolation:isolate"></path><polygon points="405.18 294.37 376.93 294.12 377.43 298.37 403.93 298.12 405.18 294.37" style="fill:#407BFF"></polygon><polygon points="373.43 290.87 349.93 278.12 348.68 281.87 371.43 293.12 373.43 290.87" style="fill:#407BFF"></polygon><path d="M383,185.58c7.95-1,10.34-4.42,10.34-4.42-3.25-3.06-2.66-7.58-1.83-10.4a16.16,16.16,0,0,1,1-2.6L382.89,170a27.54,27.54,0,0,1,.37,4,12.07,12.07,0,0,1-.27,3c-.65,2.86-2.28,2.9-2.28,2.9C379,183,383,185.58,383,185.58Z" style="fill:#b97964"></path><path d="M383.26,174a12.07,12.07,0,0,1-.27,3c3.8-.5,6.68-3.54,8.49-6.18a16.16,16.16,0,0,1,1-2.6L382.89,170A27.54,27.54,0,0,1,383.26,174Z" style="opacity:0.2;isolation:isolate"></path><path d="M397.18,145.16s5.52-4.88,11-2.38,6,6.47,3.9,10.82-3.81,8.17-1.51,9.75,1.64,5.15-.6,6.2-3.7,2.39-1.19,3.51c0,0-.4.22-2.51-1.12s-.39-2.8.27-3.78-.53.24-2.51-2.62-.66-6,.4-9.29-6.25-2.85-6.25-2.85Z" style="fill:#263238"></path><path d="M393.16,141s-5.91-3.88-12-3.13-11.82,7.87-10.07,12.89,3.59,7.38,1.88,9.23-2.44,5.22-.13,6.68a2.49,2.49,0,0,1,0-3.32c1.45-1.78,6.88-.86,8.32-4.88s8.42-5.07,8.42-5.07l4.16,13.31s6.52-1.81,7.18-11.25S398.58,140.08,393.16,141Z" style="fill:#263238"></path><path d="M384.84,143.45c-8.32.31-10.83,4.87-11.12,13.47-.37,10.74,2.29,18.27,12.61,15.59C400.35,168.88,398.66,142.94,384.84,143.45Z" style="fill:#b97964"></path><path d="M379.08,156.25a17.68,17.68,0,0,1-2.3,3.54,2.29,2.29,0,0,0,2.23.86Z" style="fill:#a24e3f"></path><path d="M384.15,155.38c0,.69.38,1.24.84,1.23s.82-.57.81-1.25-.39-1.23-.85-1.23S384.14,154.7,384.15,155.38Z" style="fill:#263238"></path><path d="M385.15,154.16l-1.5-.56S384.41,154.84,385.15,154.16Z" style="fill:#263238"></path><path d="M375.64,155.36c0,.68.38,1.23.84,1.22s.82-.56.81-1.25-.39-1.23-.84-1.22S375.63,154.67,375.64,155.36Z" style="fill:#263238"></path><path d="M376.64,154.14l-1.5-.57S375.9,154.81,376.64,154.14Z" style="fill:#263238"></path><path d="M384,149.63a4.32,4.32,0,0,1,3.65,1.13" style="fill:none;stroke:#263238;stroke-linecap:round;stroke-linejoin:round;stroke-width:0.707962px"></path><path d="M378,149.5a3.88,3.88,0,0,0-3.29.81" style="fill:none;stroke:#263238;stroke-linecap:round;stroke-linejoin:round;stroke-width:0.707962px"></path><path d="M380.35,163.88a21.13,21.13,0,0,1,1.08,2.86l.53-.07c2.41-.34,3.42-1.29,3.81-2.25A3.13,3.13,0,0,0,386,163a3,3,0,0,0-.18-.83,11.54,11.54,0,0,1-4.6,1.63C380.67,163.85,380.35,163.88,380.35,163.88Z" style="fill:#263238"></path><path d="M381.17,163.75l.34.84c2.27-.32,3.83-.85,4.44-1.64a3,3,0,0,0-.18-.83A11.54,11.54,0,0,1,381.17,163.75Z" style="fill:#fff"></path><path d="M382,166.67c2.41-.34,3.42-1.29,3.81-2.25a8,8,0,0,0-2.61.91A3,3,0,0,0,382,166.67Z" style="fill:#de5753"></path><path d="M394.46,157.14s-4.15-6.69-3.75-12c0,0-16.74-6.13-16.94,10.64,0,0-2.16-14.8,12.13-15.66s15,20.07,7.85,26.58C393.75,166.71,397,161.33,394.46,157.14Z" style="fill:#263238"></path><path d="M393.16,159a3.66,3.66,0,0,1,3.81-3.48c2.59.18,4,5.43-2.35,6.94C393.7,162.63,393.15,161.75,393.16,159Z" style="fill:#b97964"></path><path d="M390.71,145.15a10.21,10.21,0,0,0-1.25,4.71c0,2.61,3.64,7.62,3.7,9.09s-1,4,.15,5.47a3.51,3.51,0,0,1,1.29-3.73c2-1.36,3.78-5.52,1.56-8.45s-.1-6.73-.1-6.73S393,142,390.71,145.15Z" style="fill:#263238"></path><path d="M408.17,183.21c9.94,8.46-13.64,32.41-25,38s-50.73,12.35-50.73,12.35l-.79-6.68s41-9.51,46.29-14.74S406.21,181.54,408.17,183.21Z" style="fill:#b97964"></path><path d="M331.64,226.88s-2.77-1.77-4.16-1.53-11.86,6.23-11.47,7,4.15,5.11,5.54,5.71,11.08-3.08,10.88-4.5S331.64,226.88,331.64,226.88Z" style="fill:#b97964"></path><path d="M403,181.72c-3.31,3.42-10.56,8.24-21.34,7.41-9.55-.73-10.35-7.65-10.22-10.38,2.55-.17,5.81-.32,8.85-.3A103.35,103.35,0,0,1,394.79,180C397.56,180.44,400.31,181,403,181.72Z" style="fill:#b97964"></path></g><g id="freepik--speech-bubble--inject-37"><rect x="206.17" y="86.68" width="55.58" height="36.03" rx="6.12" style="fill:#407BFF"></rect><path d="M225.82,102.67h-1.35v-8.9h3.83v1.35h-2.48v2.42h1.81v1.35h-1.81Z" style="fill:#fff"></path><path d="M231.34,93.77a2,2,0,0,1,1.64.62,2.23,2.23,0,0,1,.46,1.51v1.29a2.08,2.08,0,0,1-.71,1.6l1,3.88h-1.45l-.81-3.35h-.9v3.35h-1.34v-8.9Zm.8,2.15a.69.69,0,0,0-.77-.78h-.81V98h.81a.69.69,0,0,0,.54-.23.74.74,0,0,0,.23-.54Z" style="fill:#fff"></path><path d="M234.87,102.67v-8.9h3.82v1.35h-2.48v2.42H238v1.35h-1.82v2.43h2.48v1.35Z" style="fill:#fff"></path><path d="M239.62,102.67v-8.9h3.82v1.35H241v2.42h1.81v1.35H241v2.43h2.48v1.35Z" style="fill:#fff"></path><path d="M218.41,112.46a2.51,2.51,0,0,1-.49,1.59,1.67,1.67,0,0,1-.92.63,2.39,2.39,0,0,1-.75.1,2.09,2.09,0,0,1-1.3-.39,2.3,2.3,0,0,1-.69-.87,3.53,3.53,0,0,1-.29-1.26l1.28-.1a1.88,1.88,0,0,0,.41,1.13.66.66,0,0,0,.55.25.81.81,0,0,0,.7-.43,1.09,1.09,0,0,0,.14-.59,1.65,1.65,0,0,0-.5-1.1l-1.2-1.13a5.07,5.07,0,0,1-.94-1.16,2.68,2.68,0,0,1-.3-1.25,2.15,2.15,0,0,1,.82-1.84,2,2,0,0,1,1.25-.38,2.29,2.29,0,0,1,1.22.32,1.88,1.88,0,0,1,.65.69,2.62,2.62,0,0,1,.29,1l-1.28.24a1.54,1.54,0,0,0-.32-.85.64.64,0,0,0-.53-.22.63.63,0,0,0-.56.32,1.34,1.34,0,0,0-.16.66,2,2,0,0,0,.53,1.24,4.25,4.25,0,0,0,.6.57,8,8,0,0,1,.61.54,4.56,4.56,0,0,1,.77,1,4.08,4.08,0,0,1,.21.42A2.57,2.57,0,0,1,218.41,112.46Z" style="fill:#fff"></path><path d="M220.86,110.9v3.77h-1.34v-8.9h1.34v3.78h1.62v-3.78h1.35v8.9h-1.35V110.9Z" style="fill:#fff"></path><path d="M226.37,114.67H225v-8.9h1.34Z" style="fill:#fff"></path><path d="M229.68,105.77a2.06,2.06,0,0,1,1.57.62,2.15,2.15,0,0,1,.54,1.51v1.29a2,2,0,0,1-.62,1.5,2,2,0,0,1-1.49.63h-.77v3.35h-1.34v-8.9Zm.81,2.15a.76.76,0,0,0-.21-.56.73.73,0,0,0-.56-.22h-.81V110h.81a.7.7,0,0,0,.54-.23.74.74,0,0,0,.23-.54Z" style="fill:#fff"></path><path d="M235,105.77a2.06,2.06,0,0,1,1.56.62,2.15,2.15,0,0,1,.54,1.51v1.29a2,2,0,0,1-.62,1.5,2,2,0,0,1-1.48.63h-.78v3.35h-1.34v-8.9Zm.8,2.15a.76.76,0,0,0-.21-.56.73.73,0,0,0-.56-.22h-.81V110H235a.69.69,0,0,0,.54-.23.74.74,0,0,0,.23-.54Z" style="fill:#fff"></path><path d="M239.49,114.67h-1.34v-8.9h1.34Z" style="fill:#fff"></path><path d="M242.2,105.77l1.78,6v-6h1.34v8.9h-1.44L242,109v5.7h-1.35v-8.9Z" style="fill:#fff"></path><path d="M248.63,114.79a2.05,2.05,0,0,1-1.51-.63,2.08,2.08,0,0,1-.62-1.5V107.8a2.13,2.13,0,0,1,4.26,0v1h-1.4v-1a.74.74,0,0,0-.22-.55.76.76,0,0,0-.55-.23.79.79,0,0,0-.77.78v4.87a.74.74,0,0,0,.23.54.73.73,0,0,0,.54.22.75.75,0,0,0,.55-.22.73.73,0,0,0,.22-.54V110.9h-.74v-1.35h2.14v3.11a2,2,0,0,1-.63,1.51A2.06,2.06,0,0,1,248.63,114.79Z" style="fill:#fff"></path><path d="M252.6,110.74v-5H254v5l-.1,1.72H252.7Zm0,3.93v-1.35H254v1.35Z" style="fill:#fff"></path><path d="M214.38,119.55s.45,11-9.22,15.24c0,0,10-.26,16.83-15.24Z" style="fill:#407BFF"></path></g><g id="freepik--character-1--inject-37"><g id="freepik--group--inject-37"><polygon points="195.57 409.44 203.94 410.32 205.51 392.27 197.14 391.39 195.57 409.44" style="fill:#ebb376"></polygon><polygon points="153.82 408.83 161.93 408.83 162.6 390.05 154.48 390.05 153.82 408.83" style="fill:#ebb376"></polygon><path d="M163.05,407.89H153.2a.71.71,0,0,0-.69.56l-1.6,7.22a1.19,1.19,0,0,0,.92,1.41,1.24,1.24,0,0,0,.27,0c3.18-.05,5.5-.25,9.51-.25,2.46,0,9.9.26,13.3.26s3.85-3.36,2.46-3.67c-6.25-1.36-11-3.25-13-5.05A2,2,0,0,0,163.05,407.89Z" style="fill:#263238"></path><path d="M163.61,409a.19.19,0,0,1-.15-.16.2.2,0,0,1,.09-.19c.29-.18,2.91-1.79,3.81-1.33a.57.57,0,0,1,.33.54,1.15,1.15,0,0,1-.4,1,2.41,2.41,0,0,1-1.56.41A9.43,9.43,0,0,1,163.61,409Zm.55-.26a4,4,0,0,0,2.89-.15.78.78,0,0,0,.26-.69c0-.16-.07-.23-.12-.23a.45.45,0,0,0-.25-.05A7.82,7.82,0,0,0,164.16,408.75Z" style="fill:#407BFF"></path><path d="M163.55,409.05a.21.21,0,0,1-.09-.17c0-.11.21-2.45,1.15-3.21a1.08,1.08,0,0,1,.81-.25.63.63,0,0,1,.62.51c.17.86-1.45,2.64-2.29,3.09h-.09A.14.14,0,0,1,163.55,409.05Zm1.3-3.15a4.5,4.5,0,0,0-.95,2.54c.83-.63,1.86-2,1.76-2.51,0-.05,0-.2-.28-.2h-.09A.66.66,0,0,0,164.85,405.9Z" style="fill:#407BFF"></path><path d="M204.82,407.63H195a.71.71,0,0,0-.69.56l-1.6,7.22a1.21,1.21,0,0,0,.93,1.42l.26,0c3.19-.05,5.51-.25,9.51-.25,2.46,0,9.9.26,13.3.26s3.85-3.36,2.46-3.67c-6.25-1.36-11-3.25-13-5A2,2,0,0,0,204.82,407.63Z" style="fill:#263238"></path><path d="M205.38,408.76a.2.2,0,0,1-.15-.17.2.2,0,0,1,.1-.19c.29-.18,2.91-1.79,3.8-1.33a.57.57,0,0,1,.33.54,1.1,1.1,0,0,1-.4,1,2.39,2.39,0,0,1-1.56.41A10.11,10.11,0,0,1,205.38,408.76Zm.56-.27a3.88,3.88,0,0,0,2.88-.15.78.78,0,0,0,.26-.69c0-.15-.07-.23-.12-.23a.53.53,0,0,0-.25-.05A7.7,7.7,0,0,0,205.94,408.49Z" style="fill:#407BFF"></path><path d="M205.33,408.8a.22.22,0,0,1-.1-.18c0-.11.21-2.44,1.15-3.21a1,1,0,0,1,.81-.24.62.62,0,0,1,.62.5c.17.86-1.45,2.64-2.29,3.1h-.09A.19.19,0,0,1,205.33,408.8Zm1.3-3.16a4.52,4.52,0,0,0-1,2.54c.83-.63,1.86-2,1.76-2.51,0-.05,0-.19-.28-.19h-.09A.67.67,0,0,0,206.63,405.64Z" style="fill:#407BFF"></path><polygon points="197.14 391.39 205.51 392.27 204.69 401.58 196.32 400.7 197.14 391.39" style="opacity:0.2;isolation:isolate"></polygon><polygon points="154.48 390.06 162.6 390.06 162.25 399.74 154.13 399.74 154.48 390.06" style="opacity:0.2;isolation:isolate"></polygon><path d="M157.83,225.3h43c4.09,22.34,16.9,101.41,7.71,171.86L194,395.36s1.35-93.53-11.51-128.11c-1.48,18.51-3.24,38.2-4.76,48.67C174,341.71,166,398.06,166,398.06H151.14s3-53.94,4.43-79.28C157.1,291.27,157.77,231,157.83,225.3Z" style="fill:#263238"></path><path d="M157.83,225.3h43c4.09,22.34,16.9,101.41,7.71,171.86L194,395.36s1.35-93.53-11.51-128.11c-1.48,18.51-3.24,38.2-4.76,48.67C174,341.71,166,398.06,166,398.06H151.14s3-53.94,4.43-79.28C157.1,291.27,157.77,231,157.83,225.3Z" style="fill:#fff;opacity:0.2"></path><path d="M202.7,156.64s26,24.53,38,28.63,42.85,19.29,42.85,19.29l4.73-3.73c0-.21,3.45,2.46,3.49,4.31,0,1.34-3.39,12.57-4.1,12.56-3.3,0-6.95-7.56-6.95-7.56s-39.5-10.29-46.59-13.39-36.25-25.86-36.25-25.86Z" style="fill:#ebb376"></path><path d="M196.93,150.75c5.94-.18,37.27,27.32,39.7,30.09s26.77,11.07,29.53,15.23-1.38,9.07-8.11,9.67-53.13-20.23-60.19-30.38S196.93,150.75,196.93,150.75Z" style="fill:#407BFF"></path><path d="M196.93,150.75c5.94-.18,37.27,27.32,39.7,30.09s26.77,11.07,29.53,15.23-1.38,9.07-8.11,9.67-53.13-20.23-60.19-30.38S196.93,150.75,196.93,150.75Z" style="opacity:0.2;isolation:isolate"></path><polygon points="212.2 173.21 215.63 242.89 262.21 242.89 297.81 234.37 297.81 168.87 248 168.59 212.2 173.21" style="fill:#407BFF"></polygon><polygon points="212.2 173.21 215.63 242.89 262.21 242.89 297.81 234.37 297.81 168.87 248 168.59 212.2 173.21" style="fill:#fff;opacity:0.6000000000000001;isolation:isolate"></polygon><polygon points="212.2 173.21 259.44 174.8 262.21 242.89 215.63 242.89 212.2 173.21" style="fill:#fff;opacity:0.2"></polygon><polygon points="259.44 174.8 297.81 168.87 248 168.59 212.2 173.21 259.44 174.8" style="fill:#fff;opacity:0.4"></polygon><polygon points="229.85 173.8 235.9 172.86 243.42 173.21 236.63 174.03 236.63 177.86 230.16 177.41 229.85 173.8" style="opacity:0.2;isolation:isolate"></polygon><polygon points="265.51 168.69 263.53 169.1 270.25 169.1 272.69 168.73 265.51 168.69" style="opacity:0.2;isolation:isolate"></polygon><polygon points="262.21 180.44 262.74 187.17 275.53 184.99 275.53 178.37 262.21 180.44" style="opacity:0.2;isolation:isolate"></polygon><polygon points="282.25 227.85 282.25 236.02 296.23 232.73 296.23 225.3 282.25 227.85" style="opacity:0.2;isolation:isolate"></polygon><path d="M246.52,225.3s1.32,4.09,3.82,5.36v7.08l-1.91,2H255l-3.48-2.24-.13-6.81A7,7,0,0,0,255,225.3H251.4l-.64,2.15,1.16.13L250.76,230v-1.24h-.95l.95-3.42Z" style="opacity:0.2;isolation:isolate"></path><path d="M182.49,267.26a115,115,0,0,1,4.81,18.61c1.2-16.46-3.61-33.93-3.61-33.93Z" style="opacity:0.2;isolation:isolate"></path><path d="M196.93,150.75s-27.37-1.33-47.77,3.82c0,0,6.22,55.68,6.61,83.74a4.5,4.5,0,0,0,4.66,4.42l41.09-1.43a4.5,4.5,0,0,0,4.34-4.68C205.26,221.61,202.9,173.09,196.93,150.75Z" style="fill:#407BFF"></path><polygon points="156.91 241.22 156.91 245.91 205.16 243.57 204.79 239.72 156.91 241.22" style="fill:#263238"></polygon><path d="M179.63,162s9.2,41.34,7.86,79.75" style="fill:none;stroke:#263238;stroke-miterlimit:10"></path><path d="M148.41,177.15s8.55,23.59,11.08,28.54,52.33,9.83,52.33,9.83,11,7.12,13,6.79,6.58-9.67,4.58-10.67-8.08-7.88-11.37-7.77-6.17,3.77-6.17,3.77-41-11.75-43.21-12.62c-1.58-.63-8.06-23.47-8.06-23.47Z" style="fill:#ebb376"></path><path d="M149.17,154.57c-6.77.17-9.26,11.13-.76,35.49,5.46,15.68,18.56,24,39.08,27.64s20.9-8.18,16.62-12.27-27.81-10.15-31.6-13.58S163.38,154.22,149.17,154.57Z" style="fill:#407BFF"></path><polygon points="204.11 205.43 202.83 216.55 206.28 217.7 207.48 205.43 204.11 205.43" style="fill:#263238"></polygon><path d="M149.17,154.57c-6.77.17-9.26,11.13-.76,35.49,5.46,15.68,18.56,24,39.08,27.64s20.9-8.18,16.62-12.27-27.81-10.15-31.6-13.58S163.38,154.22,149.17,154.57Z" style="opacity:0.2;isolation:isolate"></path><path d="M164.72,150.75s13.62,12.64,15.92,11.29,3-10.48,3-10.48Z" style="fill:#fff"></path><path d="M164.73,151.81c4,3.59,13.63,2.26,13.63,2.26s6-1.65,4.77-3.54c-3.56-.59-5.28-2.25-6-4.37a10.29,10.29,0,0,1-.36-4.07,19.89,19.89,0,0,1,.3-2.27l-12-8.86C166.68,136.81,168.6,147.57,164.73,151.81Z" style="fill:#ebb376"></path><path d="M167.88,136.6c.47,7.17,6.37,9.15,9.26,9.56a10.29,10.29,0,0,1-.36-4.07Z" style="opacity:0.2;isolation:isolate"></path><path d="M188.6,114.45s1.8,8.21.35,14.1-3.18,6.5-5,6.89-1.76-20.28-1.76-20.28Z" style="fill:#407BFF"></path><path d="M186.91,115.61s2.77,8.1,1.32,14-3.18,6.5-5.06,6.89-1.75-20.28-1.75-20.28Z" style="opacity:0.5;isolation:isolate"></path><path d="M185.93,111.75s3.51,10.75-1.64,16-8.55-15.31-8.55-15.31Z" style="fill:#263238"></path><path d="M168.77,139.3a10.15,10.15,0,0,0,12.13,2,11.28,11.28,0,0,0,5.5-6.24c.13-.36.25-.75.35-1.14,1.76-7.22.71-19.15-7.14-22.38a11,11,0,0,0-15.21,10.92C164.84,130.44,164.71,135.18,168.77,139.3Z" style="fill:#ebb376"></path><path d="M176.58,124.72c-.05.65.34,1.19.77,1.19s.78-.54.78-1.19-.34-1.18-.77-1.18S176.59,124.06,176.58,124.72Z" style="fill:#263238"></path><path d="M184,124.75c0,.65.35,1.19.77,1.19s.78-.53.79-1.18-.35-1.19-.78-1.19S184,124.13,184,124.75Z" style="fill:#263238"></path><path d="M181.62,125.07a23.39,23.39,0,0,0,3.1,5.6,3.77,3.77,0,0,1-3.14.58Z" style="fill:#d58745"></path><path d="M174.3,122.32a.41.41,0,0,0,.37-.15,3.09,3.09,0,0,1,2.46-1.27.39.39,0,0,0,.41-.36.38.38,0,0,0-.35-.41h0a3.84,3.84,0,0,0-3.13,1.57.39.39,0,0,0,.06.54h0A.53.53,0,0,0,174.3,122.32Z" style="fill:#263238"></path><path d="M187.16,122.22a.44.44,0,0,0,.23,0,.38.38,0,0,0,.18-.51h0a3.8,3.8,0,0,0-2.75-2.17.38.38,0,0,0-.43.33h0a.39.39,0,0,0,.33.43h0a3.09,3.09,0,0,1,2.15,1.75A.43.43,0,0,0,187.16,122.22Z" style="fill:#263238"></path><path d="M169.51,134.41a9.69,9.69,0,0,0,6.62,6.82c4.46,1.22,6.53-1.08,6.53-1.08a7.68,7.68,0,0,1-9,1.49,15.53,15.53,0,0,1-6.29-5.87Z" style="fill:#263238"></path><path d="M170.34,112.43l.58,3.52a2.65,2.65,0,0,0-1.18,3.38c1.27,2.92-.22,7.61-2.42,9.55,0,0-.12-1.29-1.2-.94s-.48,7.06,1.78,10.16c0,0-3.34-2.75-5.45-9.72-2-6.44-2.4-11.86-1.18-14.44Z" style="fill:#263238"></path><path d="M160.86,129a7.68,7.68,0,0,0,4.37,3.89c2.53.86,4-1.38,3.38-3.85-.53-2.2-2.48-5.36-5.09-5.13S159.81,126.75,160.86,129Z" style="fill:#ebb376"></path><path d="M188.86,116.06s-16.54-.53-17.47,2.7-.06,9.87.17,14.48c.16,3.16-2.42,4.71-4.92,4.86h0a5.34,5.34,0,0,1-.8,0,5.16,5.16,0,0,1-2.32-.65c-3-1.8-6.58-4.59-8.61-12.78-2.65-10.69,2.43-22.22,17.72-22.36S188.86,116.06,188.86,116.06Z" style="fill:#407BFF"></path><path d="M187.91,116.25s-15.59-.72-16.52,2.51-.06,9.87.17,14.48c.16,3.16-2.42,4.71-4.92,4.86,1.05-.18,2.15-1,2.24-3,.11-2.51-1.57-13.55,0-15.67s6.89-3.79,12.36-4.21S187.91,116.25,187.91,116.25Z" style="opacity:0.5;isolation:isolate"></path><path d="M167,115.67s-1.62,2.08-.83,3.35,25.61-.81,25.91-1.43-2.79-1.71-3.25-2-.59-3-1.49-3.26S174,111.21,167,115.67Z" style="fill:#263238"></path><path d="M169,117a.64.64,0,0,1-.53.74.64.64,0,1,1-.21-1.27A.64.64,0,0,1,169,117Z" style="fill:#407BFF"></path><path d="M182,132.77a21.33,21.33,0,0,0-.84,3l-.55,0c-2.49-.12-3.61-1-4.09-1.93a3.31,3.31,0,0,1-.33-1.49,3,3,0,0,1,.12-.86,11.68,11.68,0,0,0,4.84,1.23C181.64,132.76,182,132.77,182,132.77Z" style="fill:#263238"></path><path d="M181.12,132.71l-.27.89c-2.35-.12-4-.51-4.69-1.26a3,3,0,0,1,.12-.86A11.68,11.68,0,0,0,181.12,132.71Z" style="fill:#fff"></path><path d="M180.58,135.76c-2.49-.12-3.61-1-4.09-1.93a8,8,0,0,1,2.74.67A2.92,2.92,0,0,1,180.58,135.76Z" style="fill:#de5753"></path><path d="M162.19,152.17l1.32-4.57s13.85,5.15,16.12,14.44c0,0-1-11.27,2.43-14.44l2.36,3s.3,11.25-3.78,12.63S162.19,152.17,162.19,152.17Z" style="fill:#407BFF"></path><path d="M162.19,152.17l1.32-4.57s13.85,5.15,16.12,14.44c0,0-1-11.27,2.43-14.44l2.36,3s.3,11.25-3.78,12.63S162.19,152.17,162.19,152.17Z" style="opacity:0.2;isolation:isolate"></path><polygon points="210.24 400.56 192.21 397.88 192.76 392.88 211.51 395.34 210.24 400.56" style="fill:#407BFF"></polygon><polygon points="210.24 400.56 192.21 397.88 192.76 392.88 211.51 395.34 210.24 400.56" style="fill:#fff;opacity:0.6000000000000001;isolation:isolate"></polygon><polygon points="167.75 398.18 150.26 398.18 150.26 392.95 168.41 392.61 167.75 398.18" style="fill:#407BFF"></polygon><polygon points="167.75 398.18 150.26 398.18 150.26 392.95 168.41 392.61 167.75 398.18" style="fill:#fff;opacity:0.6000000000000001;isolation:isolate"></polygon></g></g></svg>