<svg xmlns="http://www.w3.org/2000/svg" xmlns:xlink="http://www.w3.org/1999/xlink" viewBox="0 0 500 500"><defs><clipPath id="freepik--clip-path--inject-2"><path d="M232.91,298.35s-1.41,29.65-3.82,37-4.22,61.35-4.33,64,7.17,10.78,10.46,12.4,1.88,2.23-1.56,2.72-7.51.23-9.43-2.52-6-3.27-6-3.27l-.17,6.29-1.15.07-1.38-7.75a8.18,8.18,0,0,1,.53-5.27c1.25-3-.29-5.51-.95-15.61s-3.89-26.23-3.33-34.12,4.51-19,4.08-25.54-.71-23.3-.71-23.3Z" style="fill:#fff;stroke:#263238;stroke-linecap:round;stroke-linejoin:round"></path></clipPath><clipPath id="freepik--clip-path-2--inject-2"><path d="M220.67,297.12s-1.53,31.6-4.15,39.59-4.9,66.5-5,69.35,7.56,13.34,11.13,15.09,2,2.42-1.69,3-8.16.25-10.24-2.74a22.24,22.24,0,0,0-6-5.28l-.18,6.83-1.25.08-1.49-8.43a8.86,8.86,0,0,1,.56-5.72c1.36-3.21-.24-6.16-1-17.13s-5.71-31-5.09-39.52,4.88-17.82,4.41-24.89-3.46-28-3.46-28Z" style="fill:#fff;stroke:#263238;stroke-linecap:round;stroke-linejoin:round"></path></clipPath><clipPath id="freepik--clip-path-3--inject-2"><path d="M254.2,249.17s-.89-17.93-1.2-26.88c-.21-6.37-.6-14.28-1.94-17.2a9.09,9.09,0,0,0-.88-1.8l0-.08h0c-2.45-3.81-7.67-6.37-12.06-7.46-5.7-1.43-8.95-.61-8.95-.61s-10,1-18.31,5.49-8.34,14.64-7.12,22,4.68,22.57,4.68,23.18-11.19,11.6-16.88,25.22,2.44,57.45,2.44,57.45,5.29,3.46,20.34,3.46,23.39-6.27,23.39-6.27,5.29-40.4,4.27-55.65a225.55,225.55,0,0,0-2.44-23s.64-.9,1.53-2.28A21.52,21.52,0,0,0,245.08,255c.68.86,2.15,2.88,4,5.43A17.53,17.53,0,0,1,257,256Z" style="fill:#fff;stroke:#263238;stroke-linecap:round;stroke-linejoin:round"></path></clipPath><clipPath id="freepik--clip-path-4--inject-2"><path d="M228.3,186.59s.21,5.5-1.62,8.34-2.44,4.07-2.44,8.34,6.86,20,10.11,18.19,1.07-12.49,1.48-16.15.41-5.5.41-5.5S230.34,184,228.3,186.59Z" style="fill:#fff;stroke:#263238;stroke-linecap:round;stroke-linejoin:round"></path></clipPath><clipPath id="freepik--clip-path-5--inject-2"><path d="M209.18,202.26s-7.94,2.69-6.59,12.45c.68,4.87,2.53,17.45,4.36,24.77s4.88,17.08,7.73,17.49,47.18-16.07,47.18-16.07,7.33.82,9.16-.2a13.47,13.47,0,0,0,4.27-4.88c.61-1.22-5.9-2.65-7.53-2.65S260,236.63,259,237s-35.6,4.88-36.41,4.88-3.07-19.93-4.88-26.44c-2.44-8.75-5.5-10.58-5.5-10.58" style="fill:#fff;stroke:#263238;stroke-linecap:round;stroke-linejoin:round"></path></clipPath><clipPath id="freepik--clip-path-6--inject-2"><path d="M228.58,180.16s-.41-4.44-3-3.23-2.62,6.66-1.21,8.07a4.67,4.67,0,0,0,3,1.41,18.22,18.22,0,0,0,2.22,7.67c2,3.22,5.44,9.68,9.48,8.47s11.29-11.7,12.91-16.74a80.39,80.39,0,0,0,2.42-12.91s-8.88,4-15.13,4.84A55.53,55.53,0,0,0,228.58,180.16Z" style="fill:#fff;stroke:#263238;stroke-linecap:round;stroke-linejoin:round"></path></clipPath><clipPath id="freepik--clip-path-7--inject-2"><path d="M284.73,242.58s-1,22.67-1,23.67-1.66,28-.66,33.66,2.66,12.34,3.66,14.34,3.67,3.66,3.67,1.33.33-11-.33-13.33a44.18,44.18,0,0,0-3-6.54s5-21.46,6.33-27.46,4.33-27.34,4.33-29.67-13-1.33-13-1.33Z" style="fill:#fff;stroke:#263238;stroke-linecap:round;stroke-linejoin:round"></path></clipPath><clipPath id="freepik--clip-path-8--inject-2"><path d="M294.6,196.36s-4.2,3.55-4.87,5.89-9.33,38.66-9.33,38.66l20.67,8,4.66-42S304.13,192.48,294.6,196.36Z" style="fill:#fff;stroke:#263238;stroke-linecap:round;stroke-linejoin:round"></path></clipPath><clipPath id="freepik--clip-path-9--inject-2"><path d="M315.1,190s-12,.95-20.5,6.4c-1.77,1.14-.64,39.51-.64,47.62s-1.29,19.22-1.07,20.72,7.9,7,20.92,8.54,27.55-1.93,28.4-3.85.43-4.69.43-5.55S357,215.64,355.9,210.3s-2.12-11.3-11.76-15.86c-6.22-2.93-14.95-5.12-19.44-5.12A91,91,0,0,0,315.1,190Z" style="fill:#fff;stroke:#263238;stroke-linecap:round;stroke-linejoin:round"></path></clipPath><clipPath id="freepik--clip-path-10--inject-2"><path d="M312.71,184.23s-2.14,18.37-.22,20.29,5.77-3.85,9-6.41,7.48-9,7.9-12.6a61.79,61.79,0,0,0,.22-8.32s-6.62,9.18-10,9.18A15,15,0,0,1,312.71,184.23Z" style="fill:#fff;stroke:#263238;stroke-linecap:round;stroke-linejoin:round"></path></clipPath><clipPath id="freepik--clip-path-11--inject-2"><path d="M307.07,161.12s-.43,12.71,1.29,17.67,6.25,12.5,12.29,10.78,10.56-14,10.56-14,5.6-2.59,6.68-6.47a14.9,14.9,0,0,0-.21-7.76s-11.86-3.66-18.11-3.23a39.19,39.19,0,0,0-11.64,2.8Z" style="fill:#fff;stroke:#263238;stroke-linecap:round;stroke-linejoin:round"></path></clipPath><clipPath id="freepik--clip-path-12--inject-2"><path d="M336.13,213.9l-4,36.6s7.8,3.39,12.8,4.25a49.05,49.05,0,0,0,8.64.75s3.78-29.5,3.54-37.2-1.28-14.89-5.45-16" style="fill:#fff;stroke:#263238;stroke-linecap:round;stroke-linejoin:round"></path></clipPath></defs><g id="freepik--background-simple--inject-2"><path d="M421.13,130.59S396,79.42,340.59,71.84s-94.15,29.38-134.94,48.33c-21.37,9.92-45.77,6.07-68.45,10.87C64.68,146.4,37.36,242.63,67.57,297.36c26.15,47.37,72.18,72,142.26,77.69s119.25,12.32,182-34.11S450.42,197.86,421.13,130.59Z" style="fill:#407BFF"></path><path d="M421.13,130.59S396,79.42,340.59,71.84s-94.15,29.38-134.94,48.33c-21.37,9.92-45.77,6.07-68.45,10.87C64.68,146.4,37.36,242.63,67.57,297.36c26.15,47.37,72.18,72,142.26,77.69s119.25,12.32,182-34.11S450.42,197.86,421.13,130.59Z" style="fill:#fff;opacity:0.7000000000000001"></path></g><g id="freepik--Ground--inject-2"><ellipse cx="248.03" cy="410.54" rx="177.46" ry="38.77" style="fill:#407BFF"></ellipse><ellipse cx="248.03" cy="410.54" rx="177.46" ry="38.77" style="fill:#fff;opacity:0.5"></ellipse></g><g id="freepik--Plants--inject-2"><path d="M387.71,293.23l-5.33-2.33a9.22,9.22,0,0,0,1.66,2.67,14.39,14.39,0,0,1,2,3s-5-3.67-8.33-4.34a41.87,41.87,0,0,0-7-.66l5,2.33-4,1,1,1.34h-7l4.67,3.33-2,2.67-2,3.33,5.33-1.66-1.33,3.33,2.67-1.33-1.67,3H368l4.33,2.33h-3l1.33,1-2,1.67,4.34.67-2.73,1.91,6.73-.91-2.33,3.33,5.66-1.33v1.67h31.35l.89-2.76,1.11-1.25,3.34-2.33-3.67-.33,1.67-1-1.34-1.34,2.34-1.67-1.67-2.33,2.34-4.67-5-.67,1-2.33v-4.34l-4.67-.33.67-4.67-3.67,1-2,.34-2.67-2.67-1,4.67-4-3.67-2-1.34-.67,4-3.33-.67Z" style="fill:#407BFF"></path><path d="M387.71,293.23l-5.33-2.33a9.22,9.22,0,0,0,1.66,2.67,14.39,14.39,0,0,1,2,3s-5-3.67-8.33-4.34a41.87,41.87,0,0,0-7-.66l5,2.33-4,1,1,1.34h-7l4.67,3.33-2,2.67-2,3.33,5.33-1.66-1.33,3.33,2.67-1.33-1.67,3H368l4.33,2.33h-3l1.33,1-2,1.67,4.34.67-2.73,1.91,6.73-.91-2.33,3.33,5.66-1.33v1.67h31.35l.89-2.76,1.11-1.25,3.34-2.33-3.67-.33,1.67-1-1.34-1.34,2.34-1.67-1.67-2.33,2.34-4.67-5-.67,1-2.33v-4.34l-4.67-.33.67-4.67-3.67,1-2,.34-2.67-2.67-1,4.67-4-3.67-2-1.34-.67,4-3.33-.67Z" style="fill:#fff;opacity:0.4"></path><path d="M382.38,319.25h29.34l.72-2.23-.72-.1,1-2.33v-4.34l-4.67-.33.67-4.67-3.67,1-2,.34-2.67-2.67-1,4.67-4-3.67-2-1.34-.67,4-3.33-.67-1.67,2.33-5.33-2.33a9.22,9.22,0,0,0,1.66,2.67,14.39,14.39,0,0,1,2,3s-5-3.67-8.33-4.34a39.3,39.3,0,0,0-5.63-.63l-.26.49,3.89,1.81-4,1,.62.33h-.43l.76,1h-2l-2,1.65,4.34.67-2.73,1.91,6.73-.91-2.33,3.33,5.66-1.33v1.67Z" style="fill:#263238;opacity:0.2"></path><path d="M399.16,382.2h-16.3a6.26,6.26,0,0,1-6-4.55h0a177.15,177.15,0,0,1-6.73-53.6l.21-7.56h42.3l.21,7a177.31,177.31,0,0,1-6.52,53.34h0A7.42,7.42,0,0,1,399.16,382.2Z" style="fill:#263238;stroke:#263238;stroke-linecap:round;stroke-linejoin:round"></path></g><g id="freepik--House--inject-2"><rect x="288.17" y="102.48" width="122.06" height="175.2" style="fill:none;stroke:#263238;stroke-linecap:round;stroke-linejoin:round"></rect><rect x="294.52" y="109.4" width="109.36" height="161.36" style="fill:none;stroke:#263238;stroke-linecap:round;stroke-linejoin:round"></rect><rect x="345.76" y="109.4" width="6.88" height="161.36" style="fill:none;stroke:#263238;stroke-linecap:round;stroke-linejoin:round"></rect><rect x="126.48" y="108.75" width="123.55" height="257.18" transform="translate(376.52 474.69) rotate(180)" style="fill:none;stroke:#263238;stroke-miterlimit:10"></rect><polygon points="254.54 102.48 254.54 371.77 247.12 371.77 247.12 110.34 127.81 110.34 127.81 371.77 119.57 371.77 119.57 102.48 254.54 102.48" style="fill:none;stroke:#263238;stroke-miterlimit:10"></polygon><rect x="141.6" y="120.95" width="93.33" height="234.38" transform="translate(376.52 476.28) rotate(180)" style="fill:none;stroke:#263238;stroke-miterlimit:10"></rect><rect x="151.94" y="265.71" width="72.65" height="73.18" transform="translate(376.52 604.61) rotate(180)" style="fill:none;stroke:#263238;stroke-miterlimit:10"></rect><rect x="197.01" y="138.45" width="27.57" height="116.13" style="fill:none;stroke:#263238;stroke-linecap:round;stroke-linejoin:round"></rect><rect x="151.94" y="138.45" width="27.57" height="116.13" style="fill:none;stroke:#263238;stroke-linecap:round;stroke-linejoin:round"></rect><rect x="129.78" y="221.88" width="9.64" height="3.59" transform="translate(269.19 447.34) rotate(180)" style="fill:#263238;stroke:#263238;stroke-linecap:round;stroke-linejoin:round"></rect><rect x="129.78" y="272.3" width="9.64" height="3.59" transform="translate(269.19 548.18) rotate(180)" style="fill:#263238;stroke:#263238;stroke-linecap:round;stroke-linejoin:round"></rect><path d="M140.8,288.52h0a1.59,1.59,0,0,0,1.59-1.59v-75.3A1.59,1.59,0,0,0,140.8,210h0a1.59,1.59,0,0,0-1.59,1.59v75.3A1.59,1.59,0,0,0,140.8,288.52Z" style="fill:#263238;stroke:#263238;stroke-linecap:round;stroke-linejoin:round"></path><rect x="130.32" y="246.53" width="5.16" height="9.86" transform="translate(265.79 502.91) rotate(180)" style="fill:none;stroke:#263238;stroke-linecap:round;stroke-linejoin:round"></rect><polygon points="113.16 399.57 261.96 399.57 244.79 373.16 130.33 373.16 113.16 399.57" style="fill:none;stroke:#263238;stroke-miterlimit:10"></polygon><line x1="426.87" y1="371.77" x2="247.8" y2="371.77" style="fill:none;stroke:#263238;stroke-linecap:round;stroke-linejoin:round"></line><line x1="120.57" y1="371.77" x2="59.8" y2="371.77" style="fill:none;stroke:#263238;stroke-linecap:round;stroke-linejoin:round"></line></g><g id="freepik--Box--inject-2"><rect x="185.4" y="333.58" width="90.52" height="76.95" style="fill:#407BFF;stroke:#263238;stroke-linecap:round;stroke-linejoin:round"></rect><rect x="222.67" y="333.58" width="15.98" height="13.6" style="fill:#fff;stroke:#263238;stroke-linecap:round;stroke-linejoin:round;stroke-width:0.5px"></rect><rect x="222.67" y="396.93" width="15.98" height="13.6" style="fill:#fff;stroke:#263238;stroke-linecap:round;stroke-linejoin:round;stroke-width:0.5px"></rect><polygon points="275.92 333.58 290.36 329.58 290.36 397.04 275.92 410.53 275.92 333.58" style="fill:#407BFF;stroke:#263238;stroke-linecap:round;stroke-linejoin:round"></polygon><polygon points="290.36 329.58 196.36 329.58 185.4 333.58 275.92 333.58 290.36 329.58" style="fill:#407BFF;stroke:#263238;stroke-linecap:round;stroke-linejoin:round"></polygon><line x1="192.23" y1="331.05" x2="286.5" y2="331.05" style="fill:none;stroke:#263238;stroke-linecap:round;stroke-linejoin:round;stroke-width:0.5px"></line><polygon points="238.65 333.58 252.21 329.63 233.55 329.63 222.67 333.58 238.65 333.58" style="fill:#fff;stroke:#263238;stroke-linecap:round;stroke-linejoin:round;stroke-width:0.5px"></polygon></g><g id="freepik--character-1--inject-2"><path d="M232.91,298.35s-1.41,29.65-3.82,37-4.22,61.35-4.33,64,7.17,10.78,10.46,12.4,1.88,2.23-1.56,2.72-7.51.23-9.43-2.52-6-3.27-6-3.27l-.17,6.29-1.15.07-1.38-7.75a8.18,8.18,0,0,1,.53-5.27c1.25-3-.29-5.51-.95-15.61s-3.89-26.23-3.33-34.12,4.51-19,4.08-25.54-.71-23.3-.71-23.3Z" style="fill:#fff"></path><g style="clip-path:url(#freepik--clip-path--inject-2)"><path d="M223.1,336.91c2-.71,4.4-1.52,6.15-2.09,2.31-8.13,3.66-36.47,3.66-36.47l-17.76,5.09s.28,16.79.71,23.3-3.51,17.66-4.08,25.54,2.67,24,3.33,34.12,2.2,12.65.95,15.61a7.82,7.82,0,0,0-.41,1.17,7.27,7.27,0,0,0,1.85-2.28c1.5-3.23,2.49-20.2.63-30.76s1.55-32,1.55-32Z" style="fill:#407BFF"></path><path d="M223.1,336.91c2-.71,4.4-1.52,6.15-2.09,2.31-8.13,3.66-36.47,3.66-36.47l-17.76,5.09s.28,16.79.71,23.3-3.51,17.66-4.08,25.54,2.67,24,3.33,34.12,2.2,12.65.95,15.61a7.82,7.82,0,0,0-.41,1.17,7.27,7.27,0,0,0,1.85-2.28c1.5-3.23,2.49-20.2.63-30.76s1.55-32,1.55-32Z" style="fill:#fff;opacity:0.5"></path></g><path d="M232.91,298.35s-1.41,29.65-3.82,37-4.22,61.35-4.33,64,7.17,10.78,10.46,12.4,1.88,2.23-1.56,2.72-7.51.23-9.43-2.52-6-3.27-6-3.27l-.17,6.29-1.15.07-1.38-7.75a8.18,8.18,0,0,1,.53-5.27c1.25-3-.29-5.51-.95-15.61s-3.89-26.23-3.33-34.12,4.51-19,4.08-25.54-.71-23.3-.71-23.3Z" style="fill:none;stroke:#263238;stroke-linecap:round;stroke-linejoin:round"></path><path d="M215.53,407.27a7.89,7.89,0,0,1,.11-4c2,2.62,7.32,6,11.39,7.2a15.79,15.79,0,0,0,6.87.59c.49.28.94.52,1.32.71,3.29,1.61,1.88,2.23-1.56,2.72s-7.51.23-9.43-2.52-6-3.27-6-3.27l-.17,6.29-1.15.07Z" style="fill:#263238;stroke:#263238;stroke-linecap:round;stroke-linejoin:round"></path><path d="M220.67,297.12s-1.53,31.6-4.15,39.59-4.9,66.5-5,69.35,7.56,13.34,11.13,15.09,2,2.42-1.69,3-8.16.25-10.24-2.74a22.24,22.24,0,0,0-6-5.28l-.18,6.83-1.25.08-1.49-8.43a8.86,8.86,0,0,1,.56-5.72c1.36-3.21-.24-6.16-1-17.13s-5.71-31-5.09-39.52,4.88-17.82,4.41-24.89-3.46-28-3.46-28Z" style="fill:#fff"></path><g style="clip-path:url(#freepik--clip-path-2--inject-2)"><path d="M216.21,337.87c.1-.45.21-.85.31-1.16.85-2.61,1.59-7.72,2.2-13.43l-2.46-9s-11.71-.66-17-.12c.65,5.13,1.26,10.31,1.45,13.19.47,7.07-3.8,16.33-4.41,24.89s4.37,28.56,5.09,39.52,2.32,13.92,1,17.13a9.49,9.49,0,0,0-.71,5c.77-4.8,2.25-8.84,2.25-14.85,0-7.14-2.18-26.71-3.11-37s3.11-23.29,3.11-23.29a45.67,45.67,0,0,0,8.69-.31A33.43,33.43,0,0,0,216.21,337.87Z" style="fill:#407BFF"></path><path d="M216.21,337.87c.1-.45.21-.85.31-1.16.85-2.61,1.59-7.72,2.2-13.43l-2.46-9s-11.71-.66-17-.12c.65,5.13,1.26,10.31,1.45,13.19.47,7.07-3.8,16.33-4.41,24.89s4.37,28.56,5.09,39.52,2.32,13.92,1,17.13a9.49,9.49,0,0,0-.71,5c.77-4.8,2.25-8.84,2.25-14.85,0-7.14-2.18-26.71-3.11-37s3.11-23.29,3.11-23.29a45.67,45.67,0,0,0,8.69-.31A33.43,33.43,0,0,0,216.21,337.87Z" style="fill:#fff;opacity:0.5"></path></g><path d="M220.67,297.12s-1.53,31.6-4.15,39.59-4.9,66.5-5,69.35,7.56,13.34,11.13,15.09,2,2.42-1.69,3-8.16.25-10.24-2.74a22.24,22.24,0,0,0-6-5.28l-.18,6.83-1.25.08-1.49-8.43a8.86,8.86,0,0,1,.56-5.72c1.36-3.21-.24-6.16-1-17.13s-5.71-31-5.09-39.52,4.88-17.82,4.41-24.89-3.46-28-3.46-28Z" style="fill:none;stroke:#263238;stroke-linecap:round;stroke-linejoin:round"></path><path d="M201.74,414.56a8.44,8.44,0,0,1,.11-4.38c2.14,2.85,7.45,8.24,11.87,9.56a17.09,17.09,0,0,0,7.46.64c.54.3,1,.57,1.44.77,3.57,1.75,2,2.42-1.69,3s-8.16.25-10.24-2.74a22.24,22.24,0,0,0-6-5.28l-.18,6.83-1.25.08Z" style="fill:#263238;stroke:#263238;stroke-linecap:round;stroke-linejoin:round"></path><path d="M248.57,184.23s3.33,5,9.06-.95,0-15.74-8.59-23.38-22.42-11-30.29,2.15-6.68,21.23-11,28.15S185.11,215.72,178,231.94s-1,35.07,17.89,38.17,31-22.18,30.05-33.39,5.73-35.07,9.07-40.8S248.57,184.23,248.57,184.23Z" style="fill:#263238;stroke:#263238;stroke-linecap:round;stroke-linejoin:round"></path><path d="M250.11,167.46s-6.34,3.63-19.48,5.89S209.33,186,209.33,186" style="fill:none;stroke:#fff;stroke-linecap:round;stroke-linejoin:round"></path><path d="M186.22,266.24s-11.78-6.79-3.62-23.11c11-22,45.76-59.36,45.76-59.36" style="fill:none;stroke:#fff;stroke-linecap:round;stroke-linejoin:round"></path><path d="M273.19,288c-1-2.57-5.24-6.92-5.93-7.88s-13.06-31-13.06-31-.89-17.93-1.2-26.88c-.21-6.37-.6-14.28-1.94-17.2a9.09,9.09,0,0,0-.88-1.8l0-.08h0c-2.45-3.81-7.67-6.37-12.06-7.46-5.7-1.43-8.95-.61-8.95-.61s-10,1-18.31,5.49-8.34,14.64-7.12,22,4.68,22.57,4.68,23.18-11.19,11.6-16.88,25.22,2.44,57.45,2.44,57.45,5.29,3.46,20.34,3.46,23.39-6.27,23.39-6.27,5.29-40.4,4.27-55.65a225.55,225.55,0,0,0-2.44-23s.64-.9,1.53-2.28A21.52,21.52,0,0,0,245.08,255c2.72,3.45,18.35,25.65,18.35,25.65a29.58,29.58,0,0,1,.77,4.63c.2,2.43,2.45,5.11,2.45,5.11s-.61,5.14,0,5.5,1.47-1.95,1.47-1.95-.77,3.12.65,3,1.54-1.14,1.54-1.14-.4,2.68.6,2.4a3.58,3.58,0,0,0,1.71-1.56s1.44,2.74,1.9.87S274.21,290.59,273.19,288Z" style="fill:#fff;stroke:#263238;stroke-linecap:round;stroke-linejoin:round"></path><path d="M254.2,249.17s-.89-17.93-1.2-26.88c-.21-6.37-.6-14.28-1.94-17.2a9.09,9.09,0,0,0-.88-1.8l0-.08h0c-2.45-3.81-7.67-6.37-12.06-7.46-5.7-1.43-8.95-.61-8.95-.61s-10,1-18.31,5.49-8.34,14.64-7.12,22,4.68,22.57,4.68,23.18-11.19,11.6-16.88,25.22,2.44,57.45,2.44,57.45,5.29,3.46,20.34,3.46,23.39-6.27,23.39-6.27,5.29-40.4,4.27-55.65a225.55,225.55,0,0,0-2.44-23s.64-.9,1.53-2.28A21.52,21.52,0,0,0,245.08,255c.68.86,2.15,2.88,4,5.43A17.53,17.53,0,0,1,257,256Z" style="fill:#fff"></path><g style="clip-path:url(#freepik--clip-path-3--inject-2)"><path d="M224.26,202.1l9.38-7.11a15.19,15.19,0,0,0-4.52.15s-10,1-18.31,5.49-8.34,14.64-7.12,22,4.68,22.57,4.68,23.18-11.19,11.6-16.88,25.22,2.44,57.45,2.44,57.45,2.79,1.82,10.06,2.81c-1.74-10.38-7-43.19-5.62-53.51C200,265.44,214.9,250.86,214.9,246s-7.13-29.16-4.86-35S224.26,202.1,224.26,202.1Z" style="fill:#407BFF"></path><path d="M224.26,202.1l9.38-7.11a15.19,15.19,0,0,0-4.52.15s-10,1-18.31,5.49-8.34,14.64-7.12,22,4.68,22.57,4.68,23.18-11.19,11.6-16.88,25.22,2.44,57.45,2.44,57.45,2.79,1.82,10.06,2.81c-1.74-10.38-7-43.19-5.62-53.51C200,265.44,214.9,250.86,214.9,246s-7.13-29.16-4.86-35S224.26,202.1,224.26,202.1Z" style="fill:#fff;opacity:0.5"></path><path d="M234.35,279.24s-3.34,19.1-10.51,28.65" style="fill:none;stroke:#263238;stroke-linecap:round;stroke-linejoin:round"></path></g><path d="M254.2,249.17s-.89-17.93-1.2-26.88c-.21-6.37-.6-14.28-1.94-17.2a9.09,9.09,0,0,0-.88-1.8l0-.08h0c-2.45-3.81-7.67-6.37-12.06-7.46-5.7-1.43-8.95-.61-8.95-.61s-10,1-18.31,5.49-8.34,14.64-7.12,22,4.68,22.57,4.68,23.18-11.19,11.6-16.88,25.22,2.44,57.45,2.44,57.45,5.29,3.46,20.34,3.46,23.39-6.27,23.39-6.27,5.29-40.4,4.27-55.65a225.55,225.55,0,0,0-2.44-23s.64-.9,1.53-2.28A21.52,21.52,0,0,0,245.08,255c.68.86,2.15,2.88,4,5.43A17.53,17.53,0,0,1,257,256Z" style="fill:none;stroke:#263238;stroke-linecap:round;stroke-linejoin:round"></path><line x1="268.15" y1="293.93" x2="268.61" y2="291.32" style="fill:none;stroke:#263238;stroke-linecap:round;stroke-linejoin:round"></line><line x1="270.34" y1="295.79" x2="270.57" y2="292.81" style="fill:none;stroke:#263238;stroke-linecap:round;stroke-linejoin:round"></line><line x1="272.65" y1="296.63" x2="272.57" y2="293.16" style="fill:none;stroke:#263238;stroke-linecap:round;stroke-linejoin:round"></line><path d="M266.7,285.89a4.43,4.43,0,0,0,1.68,3.13l1.49.9s1.1,6,2.65,5.09.73-6.18-1.13-9.09" style="fill:#fff;stroke:#263238;stroke-linecap:round;stroke-linejoin:round"></path><path d="M228.3,186.59s.21,5.5-1.62,8.34-2.44,4.07-2.44,8.34,6.86,20,10.11,18.19,1.07-12.49,1.48-16.15.41-5.5.41-5.5S230.34,184,228.3,186.59Z" style="fill:#fff"></path><g style="clip-path:url(#freepik--clip-path-4--inject-2)"><path d="M224.26,202.1l11.92-.76c0-1,.06-1.53.06-1.53s-5.9-15.86-7.94-13.22c0,0,.21,5.5-1.62,8.34C225,197.5,224.37,198.75,224.26,202.1Z" style="fill:#407BFF"></path><path d="M224.26,202.1l11.92-.76c0-1,.06-1.53.06-1.53s-5.9-15.86-7.94-13.22c0,0,.21,5.5-1.62,8.34C225,197.5,224.37,198.75,224.26,202.1Z" style="fill:#fff;opacity:0.5"></path></g><path d="M228.3,186.59s.21,5.5-1.62,8.34-2.44,4.07-2.44,8.34,6.86,20,10.11,18.19,1.07-12.49,1.48-16.15.41-5.5.41-5.5S230.34,184,228.3,186.59Z" style="fill:none;stroke:#263238;stroke-linecap:round;stroke-linejoin:round"></path><path d="M265.27,226.29l7.66,13.22,2,1-.41-2.24-7.71-12.93a.93.93,0,0,0-1.2-.35h0A.92.92,0,0,0,265.27,226.29Z" style="fill:#fff;stroke:#263238;stroke-linecap:round;stroke-linejoin:round"></path><path d="M209.18,202.26s-7.94,2.69-6.59,12.45c.68,4.87,2.53,17.45,4.36,24.77s4.88,17.08,7.73,17.49,47.18-16.07,47.18-16.07,7.33.82,9.16-.2a13.47,13.47,0,0,0,4.27-4.88c.61-1.22-5.9-2.65-7.53-2.65S260,236.63,259,237s-35.6,4.88-36.41,4.88-3.07-19.93-4.88-26.44c-2.44-8.75-5.5-10.58-5.5-10.58" style="fill:#fff"></path><g style="clip-path:url(#freepik--clip-path-5--inject-2)"><path d="M219.11,251.83c-5.18-1-2.59-4.86-1.3-7.12S213,247,213,246s-4.53-22.35-4.86-29.16a10.65,10.65,0,0,1,5.51-9.72l-.38-1.3a5.11,5.11,0,0,0-1-.92l-3-2.64s-7.94,2.69-6.59,12.45c.68,4.87,2.53,17.45,4.36,24.77s4.88,17.08,7.73,17.49c1.32.19,11.66-3.29,22.33-7.06C230.52,251.1,222.13,252.4,219.11,251.83Z" style="fill:#407BFF"></path><path d="M219.11,251.83c-5.18-1-2.59-4.86-1.3-7.12S213,247,213,246s-4.53-22.35-4.86-29.16a10.65,10.65,0,0,1,5.51-9.72l-.38-1.3a5.11,5.11,0,0,0-1-.92l-3-2.64s-7.94,2.69-6.59,12.45c.68,4.87,2.53,17.45,4.36,24.77s4.88,17.08,7.73,17.49c1.32.19,11.66-3.29,22.33-7.06C230.52,251.1,222.13,252.4,219.11,251.83Z" style="fill:#fff;opacity:0.5"></path></g><path d="M209.18,202.26s-7.94,2.69-6.59,12.45c.68,4.87,2.53,17.45,4.36,24.77s4.88,17.08,7.73,17.49,47.18-16.07,47.18-16.07,7.33.82,9.16-.2a13.47,13.47,0,0,0,4.27-4.88c.61-1.22-5.9-2.65-7.53-2.65S260,236.63,259,237s-35.6,4.88-36.41,4.88-3.07-19.93-4.88-26.44c-2.44-8.75-5.5-10.58-5.5-10.58" style="fill:none;stroke:#263238;stroke-linecap:round;stroke-linejoin:round"></path><path d="M267.76,233.17c-1.62,0-7.73,3.46-8.74,3.87-.61.24-13,1.91-23.22,3.24-.4,2.54-.43,6.41,2.2,9.28,11.9-4.21,23.86-8.66,23.86-8.66s7.33.82,9.16-.2a13.47,13.47,0,0,0,4.27-4.88C275.9,234.6,269.39,233.17,267.76,233.17Z" style="fill:#fff;stroke:#263238;stroke-linecap:round;stroke-linejoin:round"></path><path d="M241.18,239.21a17.66,17.66,0,0,0,5.7-10.3,121.88,121.88,0,0,0,.7-15.29" style="fill:none;stroke:#263238;stroke-linecap:round;stroke-linejoin:round"></path><path d="M228.58,180.16s-.41-4.44-3-3.23-2.62,6.66-1.21,8.07a4.67,4.67,0,0,0,3,1.41,18.22,18.22,0,0,0,2.22,7.67c2,3.22,5.44,9.68,9.48,8.47s11.29-11.7,12.91-16.74a80.39,80.39,0,0,0,2.42-12.91s-8.88,4-15.13,4.84A55.53,55.53,0,0,0,228.58,180.16Z" style="fill:#fff"></path><g style="clip-path:url(#freepik--clip-path-6--inject-2)"><path d="M228.58,180.16s-.41-4.44-3-3.23-2.62,6.66-1.21,8.07a4.67,4.67,0,0,0,3,1.41,18.22,18.22,0,0,0,2.22,7.67c1.24,2,3,5.18,5.13,7.07-2.76-3.44-3.87-11.77-3-15.68s2-3.66,7.89-5.07,14.82-7.5,14.82-7.5-8.88,4-15.13,4.84A55.53,55.53,0,0,0,228.58,180.16Z" style="fill:#407BFF"></path><path d="M228.58,180.16s-.41-4.44-3-3.23-2.62,6.66-1.21,8.07a4.67,4.67,0,0,0,3,1.41,18.22,18.22,0,0,0,2.22,7.67c1.24,2,3,5.18,5.13,7.07-2.76-3.44-3.87-11.77-3-15.68s2-3.66,7.89-5.07,14.82-7.5,14.82-7.5-8.88,4-15.13,4.84A55.53,55.53,0,0,0,228.58,180.16Z" style="fill:#fff;opacity:0.5"></path></g><path d="M228.58,180.16s-.41-4.44-3-3.23-2.62,6.66-1.21,8.07a4.67,4.67,0,0,0,3,1.41,18.22,18.22,0,0,0,2.22,7.67c2,3.22,5.44,9.68,9.48,8.47s11.29-11.7,12.91-16.74a80.39,80.39,0,0,0,2.42-12.91s-8.88,4-15.13,4.84A55.53,55.53,0,0,0,228.58,180.16Z" style="fill:none;stroke:#263238;stroke-linecap:round;stroke-linejoin:round"></path><path d="M241.79,192.73s3.11,1.25,3.86.75,0-1.71.36-3.95a4.62,4.62,0,0,1,1.88-3.15" style="fill:none;stroke:#263238;stroke-linecap:round;stroke-linejoin:round"></path><path d="M240.85,185.77l-.47,1.56a2.09,2.09,0,0,1-2.66-.78" style="fill:none;stroke:#263238;stroke-linecap:round;stroke-linejoin:round"></path><path d="M249.6,188.68l-.47,1.57a2.1,2.1,0,0,1-2.66-.79" style="fill:none;stroke:#263238;stroke-linecap:round;stroke-linejoin:round"></path><path d="M237.72,194.53a4.54,4.54,0,0,0,3.44,1.73" style="fill:none;stroke:#263238;stroke-linecap:round;stroke-linejoin:round"></path><path d="M243.51,183.42a6,6,0,0,0-5.48-2.35" style="fill:none;stroke:#263238;stroke-linecap:round;stroke-linejoin:round"></path><path d="M248.83,185.93a2.19,2.19,0,0,1,2.5,1.25" style="fill:none;stroke:#263238;stroke-linecap:round;stroke-linejoin:round"></path></g><g id="freepik--character-2--inject-2"><path d="M284.73,242.58s-1,22.67-1,23.67-1.66,28-.66,33.66,2.66,12.34,3.66,14.34,3.67,3.66,3.67,1.33.33-11-.33-13.33a44.18,44.18,0,0,0-3-6.54s5-21.46,6.33-27.46,4.33-27.34,4.33-29.67-13-1.33-13-1.33Z" style="fill:#fff"></path><g style="clip-path:url(#freepik--clip-path-7--inject-2)"><path d="M284.73,242.58s-1,22.67-1,23.67-1.66,28-.66,33.66,2.66,12.34,3.66,14.34,3.67,3.66,3.67,1.33.33-11-.33-13.33a44.18,44.18,0,0,0-3-6.54s5-21.46,6.33-27.46,4.33-27.34,4.33-29.67-13-1.33-13-1.33Z" style="fill:#407BFF"></path><path d="M284.73,242.58s-1,22.67-1,23.67-1.66,28-.66,33.66,2.66,12.34,3.66,14.34,3.67,3.66,3.67,1.33.33-11-.33-13.33a44.18,44.18,0,0,0-3-6.54s5-21.46,6.33-27.46,4.33-27.34,4.33-29.67-13-1.33-13-1.33Z" style="fill:#fff;opacity:0.5"></path></g><path d="M284.73,242.58s-1,22.67-1,23.67-1.66,28-.66,33.66,2.66,12.34,3.66,14.34,3.67,3.66,3.67,1.33.33-11-.33-13.33a44.18,44.18,0,0,0-3-6.54s5-21.46,6.33-27.46,4.33-27.34,4.33-29.67-13-1.33-13-1.33Z" style="fill:none;stroke:#263238;stroke-linecap:round;stroke-linejoin:round"></path><path d="M287.27,305.77s1.85,4.31,2.46,5.75,3.29,3.28,3.29,1.64-2-5.33-2-5.33a14.31,14.31,0,0,0-1.65-7" style="fill:none;stroke:#263238;stroke-linecap:round;stroke-linejoin:round"></path><path d="M295.21,160.69s-2.15,1.29,2.59,2.58,14,.86,14.87,0,0-2.15-3.45-3S297.15,159.61,295.21,160.69Z" style="fill:#263238;stroke:#263238;stroke-linecap:round;stroke-linejoin:round"></path><path d="M300.43,408.5s-9.41,3-13.11,5.38,0,3.36,5,3.36,9.92-1.68,11.94-1.85,6.05-.34,4.87-5.38S300.43,408.5,300.43,408.5Z" style="fill:#fff;stroke:#263238;stroke-linecap:round;stroke-linejoin:round"></path><path d="M332,414.72s-9.92,9.57-10.76,12.77,5,2.85,9.58-.51,7.56-8.23,8.07-10.58S335.05,411.86,332,414.72Z" style="fill:#fff;stroke:#263238;stroke-linecap:round;stroke-linejoin:round"></path><path d="M294.6,196.36s-4.2,3.55-4.87,5.89-9.33,38.66-9.33,38.66l20.67,8,4.66-42S304.13,192.48,294.6,196.36Z" style="fill:#fff"></path><g style="clip-path:url(#freepik--clip-path-8--inject-2)"><path d="M294.6,196.36s-4.2,3.55-4.87,5.89-9.33,38.66-9.33,38.66l20.67,8,4.66-42S304.13,192.48,294.6,196.36Z" style="fill:#407BFF"></path><path d="M294.6,196.36s-4.2,3.55-4.87,5.89-9.33,38.66-9.33,38.66l20.67,8,4.66-42S304.13,192.48,294.6,196.36Z" style="fill:#fff;opacity:0.5"></path></g><path d="M294.6,196.36s-4.2,3.55-4.87,5.89-9.33,38.66-9.33,38.66l20.67,8,4.66-42S304.13,192.48,294.6,196.36Z" style="fill:none;stroke:#263238;stroke-linecap:round;stroke-linejoin:round"></path><path d="M294.73,263.58s-3,22.33-3.66,36.67.66,33.66,1.33,43.66,7.83,57.63,7.83,58.43-1.6,2.4-1.6,3.47a16.82,16.82,0,0,0,.8,3.46,32.54,32.54,0,0,1,5.07,1.34,7.42,7.42,0,0,0,5.33,0s0-10.94,1.34-16.27,4.9-64.09,4.9-64.09v-7s5,34.33,6.66,45.33,6,31.33,7,34.33a12.86,12.86,0,0,1,.67,5.34v3.66l1,4.67s1.33,2.33,3.67,2.33a9.46,9.46,0,0,0,4.66-1.66s2.34-19.34,3-25.34,1-29.66.34-32a83,83,0,0,1-1.34-9s2.67-40,1.34-49.33-2-33.33-2-33.33S311.73,275.25,294.73,263.58Z" style="fill:#263238;stroke:#263238;stroke-linecap:round;stroke-linejoin:round"></path><polyline points="316.07 323.25 312.73 297.58 308.07 292.92" style="fill:none;stroke:#fff;stroke-linecap:round;stroke-linejoin:round"></polyline><path d="M315.1,190s-12,.95-20.5,6.4c-1.77,1.14-.64,39.51-.64,47.62s-1.29,19.22-1.07,20.72,7.9,7,20.92,8.54,27.55-1.93,28.4-3.85.43-4.69.43-5.55S357,215.64,355.9,210.3s-2.12-11.3-11.76-15.86c-6.22-2.93-14.95-5.12-19.44-5.12A91,91,0,0,0,315.1,190Z" style="fill:#fff"></path><g style="clip-path:url(#freepik--clip-path-9--inject-2)"><path d="M320.93,266.18c-14.81-.68-23.07-6.19-24.11-7.57s.69-45.81.69-49.94,15.16-10.34,15.16-10.34l2.51-8.38h-.08s-12,.95-20.5,6.4c-1.77,1.14-.64,39.51-.64,47.62s-1.29,19.22-1.07,20.72,7.9,7,20.92,8.54,27.55-1.93,28.4-3.85.43-4.69.43-5.55c0-.14.38-1.52,1-3.76C339.19,259.92,333.07,266.75,320.93,266.18Z" style="fill:#407BFF"></path><path d="M320.93,266.18c-14.81-.68-23.07-6.19-24.11-7.57s.69-45.81.69-49.94,15.16-10.34,15.16-10.34l2.51-8.38h-.08s-12,.95-20.5,6.4c-1.77,1.14-.64,39.51-.64,47.62s-1.29,19.22-1.07,20.72,7.9,7,20.92,8.54,27.55-1.93,28.4-3.85.43-4.69.43-5.55c0-.14.38-1.52,1-3.76C339.19,259.92,333.07,266.75,320.93,266.18Z" style="fill:#fff;opacity:0.5"></path></g><path d="M315.1,190s-12,.95-20.5,6.4c-1.77,1.14-.64,39.51-.64,47.62s-1.29,19.22-1.07,20.72,7.9,7,20.92,8.54,27.55-1.93,28.4-3.85.43-4.69.43-5.55S357,215.64,355.9,210.3s-2.12-11.3-11.76-15.86c-6.22-2.93-14.95-5.12-19.44-5.12A91,91,0,0,0,315.1,190Z" style="fill:none;stroke:#263238;stroke-linecap:round;stroke-linejoin:round"></path><path d="M312.49,204.52s-1.06-3-3-3a16.49,16.49,0,0,0-4.91,1.28s2.78-7.9,6.84-13.24,15.16-7,17.93-4.06a17,17,0,0,1,4.27,10.68c0,3.2-9.82,10.46-10.46,10.68s-1.92-2.78-4.7-2.78a21.8,21.8,0,0,0-5.12.64Z" style="fill:#fff;stroke:#263238;stroke-linecap:round;stroke-linejoin:round"></path><path d="M312.71,184.23s-2.14,18.37-.22,20.29,5.77-3.85,9-6.41,7.48-9,7.9-12.6a61.79,61.79,0,0,0,.22-8.32s-6.62,9.18-10,9.18A15,15,0,0,1,312.71,184.23Z" style="fill:#fff"></path><g style="clip-path:url(#freepik--clip-path-10--inject-2)"><path d="M319.54,186.37a15,15,0,0,1-6.83-2.14s-2.14,18.37-.22,20.29a1.31,1.31,0,0,0,.66.34c1.48-4.64,3.07-10.37,3.07-10.37l6.76-5.36,5.35-8.73-.43-1C325.7,182.08,321.88,186.37,319.54,186.37Z" style="fill:#407BFF"></path><path d="M319.54,186.37a15,15,0,0,1-6.83-2.14s-2.14,18.37-.22,20.29a1.31,1.31,0,0,0,.66.34c1.48-4.64,3.07-10.37,3.07-10.37l6.76-5.36,5.35-8.73-.43-1C325.7,182.08,321.88,186.37,319.54,186.37Z" style="fill:#fff;opacity:0.5"></path></g><path d="M312.71,184.23s-2.14,18.37-.22,20.29,5.77-3.85,9-6.41,7.48-9,7.9-12.6a61.79,61.79,0,0,0,.22-8.32s-6.62,9.18-10,9.18A15,15,0,0,1,312.71,184.23Z" style="fill:none;stroke:#263238;stroke-linecap:round;stroke-linejoin:round"></path><path d="M307.07,161.12s-.43,12.71,1.29,17.67,6.25,12.5,12.29,10.78,10.56-14,10.56-14,5.6-2.59,6.68-6.47a14.9,14.9,0,0,0-.21-7.76s-11.86-3.66-18.11-3.23a39.19,39.19,0,0,0-11.64,2.8Z" style="fill:#fff"></path><g style="clip-path:url(#freepik--clip-path-11--inject-2)"><path d="M338.13,163.37c0-.28-.09-.54-.14-.78-.32-.4-.76-1-1.25-1.54-2.92-.84-12-3.31-17.17-3a39.19,39.19,0,0,0-11.64,2.8l-.86.22s-.43,12.71,1.29,17.67,6.25,12.5,12.29,10.78a10.87,10.87,0,0,0,5.06-3.94c.23-.61.37-1,.37-1s-7.61,5.64-10.43.57a20.44,20.44,0,0,1-2.25-10.71c-3.38-1.41-3.94-1.13-1.41-2.53s2.26-3.1,2.26-3.1c8.17,0,18.87-3.1,18.87-3.1Z" style="fill:#407BFF"></path><path d="M338.13,163.37c0-.28-.09-.54-.14-.78-.32-.4-.76-1-1.25-1.54-2.92-.84-12-3.31-17.17-3a39.19,39.19,0,0,0-11.64,2.8l-.86.22s-.43,12.71,1.29,17.67,6.25,12.5,12.29,10.78a10.87,10.87,0,0,0,5.06-3.94c.23-.61.37-1,.37-1s-7.61,5.64-10.43.57a20.44,20.44,0,0,1-2.25-10.71c-3.38-1.41-3.94-1.13-1.41-2.53s2.26-3.1,2.26-3.1c8.17,0,18.87-3.1,18.87-3.1Z" style="fill:#fff;opacity:0.5"></path></g><path d="M307.07,161.12s-.43,12.71,1.29,17.67,6.25,12.5,12.29,10.78,10.56-14,10.56-14,5.6-2.59,6.68-6.47a14.9,14.9,0,0,0-.21-7.76s-11.86-3.66-18.11-3.23a39.19,39.19,0,0,0-11.64,2.8Z" style="fill:none;stroke:#263238;stroke-linecap:round;stroke-linejoin:round"></path><path d="M315.14,167.16a11.31,11.31,0,0,1-1.29,3.45c-1.08,1.94-3.67,2.37-2.8,3.45s4.74,1.51,4.74,1.51" style="fill:none;stroke:#263238;stroke-linecap:round;stroke-linejoin:round"></path><path d="M321.13,168.85c0,1.07-.39,1.94-.86,1.94s-.87-.87-.87-1.94.39-1.94.87-1.94S321.13,167.78,321.13,168.85Z" style="fill:#263238"></path><path d="M312.5,168c0,1.08-.38,1.94-.86,1.94s-.86-.86-.86-1.94.38-1.94.86-1.94S312.5,166.89,312.5,168Z" style="fill:#263238"></path><path d="M314.83,178.79s4.09,1.08,6.9-1.51" style="fill:none;stroke:#263238;stroke-linecap:round;stroke-linejoin:round"></path><path d="M319.14,163.33s2-2,3.53,1.55" style="fill:none;stroke:#263238;stroke-linecap:round;stroke-linejoin:round"></path><path d="M312.67,163.27s-3.46-.16-3.9,1.83" style="fill:none;stroke:#263238;stroke-linecap:round;stroke-linejoin:round"></path><path d="M330.35,159.61s-1.94,7.54,1.08,8,4.31-6.68,4.31-6.68Z" style="fill:#263238;stroke:#263238;stroke-linecap:round;stroke-linejoin:round"></path><path d="M307.28,159s.44-9.05.87-12.93,8-7.11,15.52-6.9,14.37,6.65,15.23,9.24,0,12.59,0,12.59l-.34,4.19s-9.94-4-18.77-4.46-11.86.21-11.86.21Z" style="fill:#263238;stroke:#263238;stroke-linecap:round;stroke-linejoin:round"></path><polygon points="313.98 148.99 310.62 148.41 310.5 149.17 312.43 149.48 312.3 151 313.72 151.43 313.85 152.66 315.65 153.27 313.98 148.99" style="fill:#fff"></polygon><polygon points="318.36 149.35 321.71 149.31 321.84 150.09 319.91 150.09 320.04 151.63 318.62 151.82 318.49 153.04 316.69 153.35 318.36 149.35" style="fill:#fff"></polygon><path d="M326,161.33a41.16,41.16,0,0,1-9.49,1.3c-4.74,0-14-2.16-17-2.16a29.55,29.55,0,0,0-4.32.22,53.13,53.13,0,0,1,12.72-3C314.61,157,324.1,160.25,326,161.33Z" style="fill:#fff;stroke:#263238;stroke-linecap:round;stroke-linejoin:round"></path><path d="M299.73,241.54s-2.39-3.94-2.77-4.07-3.55-1.76-4.07-1.93-1.75-.31-1.41.81,2.61,2.44,2.61,2.44l.89,2.44Z" style="fill:#fff;stroke:#263238;stroke-linecap:round;stroke-linejoin:round"></path><polyline points="312.49 204.52 309.4 224.25 312.65 224.75 314.4 213.5" style="fill:none;stroke:#263238;stroke-linecap:round;stroke-linejoin:round"></polyline><polygon points="304.87 221.87 288.43 258.6 257.04 259.88 274.12 222.94 304.87 221.87" style="fill:#263238;stroke:#263238;stroke-linecap:round;stroke-linejoin:round"></polygon><polygon points="292.5 222.12 294.24 218.96 290.37 219.13 288.73 222.42 285.67 222.55 283.75 226.61 293.57 226.61 295.92 222.12 292.5 222.12" style="fill:#fff;stroke:#263238;stroke-linecap:round;stroke-linejoin:round"></polygon><path d="M302.22,242.22s-6.21-2.9-7-2.9l-11.61-.13a3.78,3.78,0,0,0-1.19,2c-.13,1.05-.79,2.9-.13,3.83s7.52,4.62,10.29,6.07,11,.26,11,.26,19.66,8.58,26.26,11.88,12.27,5.15,15.05,5.15,6.33-16.24,6.33-16.24l-14.91-4-1.19,4s-8.71-2.37-19.27-4.35C306.31,246,302.22,242.22,302.22,242.22Z" style="fill:#fff;stroke:#263238;stroke-linecap:round;stroke-linejoin:round"></path><path d="M282.82,240.64s9.5,1.85,10.95,2.11" style="fill:none;stroke:#263238;stroke-linecap:round;stroke-linejoin:round"></path><path d="M282.16,242.49s9.76,3.3,10.29,3.43" style="fill:none;stroke:#263238;stroke-linecap:round;stroke-linejoin:round"></path><path d="M283.08,245.13s7.26,3.17,8.32,3.3" style="fill:none;stroke:#263238;stroke-linecap:round;stroke-linejoin:round"></path><path d="M336.13,213.9l-4,36.6s7.8,3.39,12.8,4.25a49.05,49.05,0,0,0,8.64.75s3.78-29.5,3.54-37.2-1.28-14.89-5.45-16" style="fill:#fff"></path><g style="clip-path:url(#freepik--clip-path-12--inject-2)"><path d="M342.63,249c-1-.34,3.79-31,.35-37.54-.5-.93-1-1.4-1.51-1.53l-2.65,2c-1.93,3.15-3.42,8.84-3.42,8.84l0,.11L332.1,250.5s4.41,1.92,8.72,3.23c.27-.38.43-.63.43-.63s5.17-1.38,7.93-1.73S343.67,249.31,342.63,249Z" style="fill:#407BFF"></path><path d="M342.63,249c-1-.34,3.79-31,.35-37.54-.5-.93-1-1.4-1.51-1.53l-2.65,2c-1.93,3.15-3.42,8.84-3.42,8.84l0,.11L332.1,250.5s4.41,1.92,8.72,3.23c.27-.38.43-.63.43-.63s5.17-1.38,7.93-1.73S343.67,249.31,342.63,249Z" style="fill:#fff;opacity:0.5"></path></g><path d="M336.13,213.9l-4,36.6s7.8,3.39,12.8,4.25a49.05,49.05,0,0,0,8.64.75s3.78-29.5,3.54-37.2-1.28-14.89-5.45-16" style="fill:none;stroke:#263238;stroke-linecap:round;stroke-linejoin:round"></path></g></svg>